<?xml version="1.0" encoding="UTF-8"?>
<!DOCTYPE svg PUBLIC "-//W3C//DTD SVG 1.1//EN" "http://www.w3.org/Graphics/SVG/1.1/DTD/svg11.dtd">
<svg xmlns="http://www.w3.org/2000/svg" version="1.1" width="480px" height="511px" style="shape-rendering:geometricPrecision; text-rendering:geometricPrecision; image-rendering:optimizeQuality; fill-rule:evenodd; clip-rule:evenodd" xmlns:xlink="http://www.w3.org/1999/xlink">
<g><path style="opacity:1" fill="#c7d0c1" d="M 249.5,34.5 C 250.995,34.4148 251.995,35.0815 252.5,36.5C 251.754,37.7362 251.421,39.0695 251.5,40.5C 250.5,40.5 249.5,40.5 248.5,40.5C 248.325,38.3792 248.659,36.3792 249.5,34.5 Z"/></g>
<g><path style="opacity:1" fill="#e0dddd" d="M 296.5,46.5 C 299.68,46.1762 300.847,47.5096 300,50.5C 298.337,54.4964 296.171,58.1631 293.5,61.5C 291.955,62.4519 290.288,62.7852 288.5,62.5C 288.717,55.7943 291.384,50.4609 296.5,46.5 Z"/></g>
<g><path style="opacity:1" fill="#d0d0d0" d="M 223.5,51.5 C 225.185,52.1837 226.185,53.517 226.5,55.5C 225.311,56.4287 223.978,56.762 222.5,56.5C 222.366,54.7085 222.699,53.0418 223.5,51.5 Z"/></g>
<g><path style="opacity:1" fill="#dfdddf" d="M 241.5,48.5 C 243.582,48.6243 245.082,49.6243 246,51.5C 246.769,54.0991 246.602,56.5991 245.5,59C 240.77,60.6036 238.77,58.9369 239.5,54C 239.698,51.8794 240.364,50.0461 241.5,48.5 Z"/></g>
<g><path style="opacity:1" fill="#dfdede" d="M 216.5,77.5 C 214.495,80.3507 212.662,83.3507 211,86.5C 210.667,90.1667 210.333,93.8333 210,97.5C 208.658,96.0977 207.824,96.4311 207.5,98.5C 208.828,105.293 210.828,111.793 213.5,118C 214.259,123.002 212.259,125.835 207.5,126.5C 207.334,130.514 207.501,134.514 208,138.5C 211.867,142.702 216.033,146.535 220.5,150C 222.134,150.494 223.801,150.66 225.5,150.5C 231.68,149.874 237.346,147.874 242.5,144.5C 245.165,140.669 247.165,136.502 248.5,132C 247.793,129.46 246.127,128.293 243.5,128.5C 243.596,122.802 244.096,117.135 245,111.5C 246.892,110.87 248.559,109.87 250,108.5C 251.622,105.678 252.789,102.678 253.5,99.5C 260.361,98.7488 265.194,101.415 268,107.5C 270.289,110.062 273.123,111.729 276.5,112.5C 278.192,114.359 279.692,116.359 281,118.5C 282.377,116.246 283.877,114.08 285.5,112C 288.661,111.797 290.828,113.297 292,116.5C 292.835,120.179 293.668,123.845 294.5,127.5C 295,127.833 295.5,128.167 296,128.5C 297.358,126.811 299.025,125.478 301,124.5C 302.188,125.563 302.688,126.897 302.5,128.5C 308.912,128.817 315.078,130.151 321,132.5C 332.63,134.255 341.13,140.588 346.5,151.5C 345.209,151.737 344.209,151.404 343.5,150.5C 339.668,143.627 333.835,138.96 326,136.5C 324.56,137.148 323.06,137.481 321.5,137.5C 321.773,135.549 321.107,134.049 319.5,133C 313.846,132.469 308.346,131.303 303,129.5C 300.217,130.383 297.384,130.383 294.5,129.5C 294.831,131.322 295.498,132.989 296.5,134.5C 294.585,134.216 292.919,134.549 291.5,135.5C 290.307,135.97 289.64,136.97 289.5,138.5C 289.86,141.702 290.526,144.702 291.5,147.5C 291.366,149.292 291.699,150.958 292.5,152.5C 293.191,154.022 294.358,155.022 296,155.5C 300.482,152.778 305.315,151.945 310.5,153C 309.672,153.915 308.672,154.581 307.5,155C 308.448,155.483 309.448,155.649 310.5,155.5C 316.383,157.443 321.716,160.443 326.5,164.5C 331.354,162.847 336.354,162.181 341.5,162.5C 345.117,165.064 347.784,168.397 349.5,172.5C 349.5,172.833 349.5,173.167 349.5,173.5C 348.584,173.018 347.584,172.685 346.5,172.5C 339.969,174.467 333.302,175.467 326.5,175.5C 326.664,172.813 326.497,170.146 326,167.5C 325.283,168.044 324.783,168.711 324.5,169.5C 318.437,171.299 312.437,173.299 306.5,175.5C 306.5,174.833 306.167,174.5 305.5,174.5C 300.587,171.882 296.254,168.548 292.5,164.5C 291.5,163.5 290.5,162.5 289.5,161.5C 285.003,154.998 280.003,149.998 274.5,146.5C 273.97,141.889 272.637,141.556 270.5,145.5C 268.801,145.66 267.134,145.494 265.5,145C 260.607,141.109 255.44,137.609 250,134.5C 247.961,138.745 245.794,142.912 243.5,147C 237.177,150.105 230.677,152.605 224,154.5C 222.373,154.375 220.873,153.875 219.5,153C 216.297,149.629 212.964,146.462 209.5,143.5C 206.208,139.169 204.541,134.169 204.5,128.5C 197.039,130.708 189.372,131.875 181.5,132C 180.944,132.383 180.611,132.883 180.5,133.5C 179.5,133.5 178.5,133.5 177.5,133.5C 175.465,138.737 175.132,144.07 176.5,149.5C 176.66,151.199 176.494,152.866 176,154.5C 174.318,151.607 173.485,148.441 173.5,145C 174.104,141.114 174.604,137.281 175,133.5C 173.386,137.277 170.886,140.277 167.5,142.5C 166.295,147.859 164.961,153.193 163.5,158.5C 162.903,158.735 162.57,159.235 162.5,160C 163.056,161.011 163.722,161.844 164.5,162.5C 162.983,162.511 161.816,163.177 161,164.5C 159.576,170.348 156.409,175.014 151.5,178.5C 150.614,179.325 150.281,180.325 150.5,181.5C 149.711,181.217 149.044,180.717 148.5,180C 148.758,175.574 149.258,171.074 150,166.5C 147.959,165.577 145.792,165.244 143.5,165.5C 144.211,162.136 143.044,159.803 140,158.5C 139.059,155.185 138.226,151.852 137.5,148.5C 138.463,146.51 139.796,146.177 141.5,147.5C 142.194,151.19 143.028,154.857 144,158.5C 146.382,159.866 148.548,159.533 150.5,157.5C 149.348,153.866 149.348,150.199 150.5,146.5C 150.167,145.5 149.833,144.5 149.5,143.5C 147.941,142.926 146.441,142.26 145,141.5C 142.436,137.538 140.269,133.371 138.5,129C 139.593,127.635 140.926,127.301 142.5,128C 145.135,129.961 146.969,132.461 148,135.5C 149.242,136.872 150.742,137.872 152.5,138.5C 154.478,129.542 155.311,120.542 155,111.5C 156.911,111.745 158.911,111.745 161,111.5C 162.466,108.269 163.633,104.935 164.5,101.5C 163.141,99.3078 161.308,97.6411 159,96.5C 158.517,95.552 158.351,94.552 158.5,93.5C 161.436,94.4058 164.436,95.0725 167.5,95.5C 168.298,90.9396 169.798,86.6063 172,82.5C 172.667,78.5 173.333,74.5 174,70.5C 175,69.1667 176,69.1667 177,70.5C 177.456,74.3914 178.956,77.7247 181.5,80.5C 184.254,74.6533 187.754,69.32 192,64.5C 192.385,57.7642 193.218,51.0975 194.5,44.5C 196.124,44.3601 197.29,45.0267 198,46.5C 199.633,54.8191 199.8,63.1524 198.5,71.5C 200.877,71.7845 203.044,71.7845 205,71.5C 206.859,66.3242 208.026,60.9909 208.5,55.5C 210.766,55.1412 212.599,55.8078 214,57.5C 214.935,62.5587 214.435,67.3921 212.5,72C 212.868,74.5345 214.201,76.3678 216.5,77.5 Z"/></g>
<g><path style="opacity:1" fill="#e3dbdc" d="M 308.5,71.5 C 310.958,71.2275 312.625,72.2275 313.5,74.5C 310.167,76.2518 308.501,75.2518 308.5,71.5 Z"/></g>
<g><path style="opacity:1" fill="#050505" d="M 231.5,72.5 C 240.815,72.6469 246.315,77.3135 248,86.5C 248.498,89.8168 248.665,93.1501 248.5,96.5C 250.167,96.5 251.833,96.5 253.5,96.5C 253.5,97.5 253.5,98.5 253.5,99.5C 252.789,102.678 251.622,105.678 250,108.5C 248.559,109.87 246.892,110.87 245,111.5C 244.096,117.135 243.596,122.802 243.5,128.5C 246.127,128.293 247.793,129.46 248.5,132C 247.165,136.502 245.165,140.669 242.5,144.5C 237.346,147.874 231.68,149.874 225.5,150.5C 227.121,148.883 229.121,147.716 231.5,147C 230.376,146.751 229.376,146.251 228.5,145.5C 230.287,144.684 231.954,143.684 233.5,142.5C 229.541,141.673 225.541,141.173 221.5,141C 220.12,139.075 218.62,137.241 217,135.5C 216.851,132.436 217.351,129.436 218.5,126.5C 218.041,119.744 217.208,113.077 216,106.5C 215.199,99.1108 215.533,91.7775 217,84.5C 219.405,83.7256 221.905,83.2256 224.5,83C 223.289,82.1072 223.289,81.2739 224.5,80.5C 227.039,81.1153 229.539,81.7819 232,82.5C 232.543,79.1322 232.376,75.7989 231.5,72.5 Z"/></g>
<g><path style="opacity:1" fill="#e1d6da" d="M 145.5,72.5 C 146.496,72.4142 147.329,72.7476 148,73.5C 148.402,74.8721 148.902,76.2054 149.5,77.5C 148.167,78.5 148.167,79.5 149.5,80.5C 148.38,82.5962 146.88,82.9295 145,81.5C 144.264,78.408 144.431,75.408 145.5,72.5 Z"/></g>
<g><path style="opacity:1" fill="#e1dcdc" d="M 368.5,75.5 C 372.206,75.7698 373.539,77.6031 372.5,81C 370.866,81.4935 369.199,81.6602 367.5,81.5C 367.325,79.3792 367.659,77.3792 368.5,75.5 Z"/></g>
<g><path style="opacity:1" fill="#dfdadf" d="M 295.5,68.5 C 297.5,68.8333 299.5,69.1667 301.5,69.5C 302.204,73.9588 303.037,78.2922 304,82.5C 302.301,83.4061 300.467,83.7394 298.5,83.5C 298.165,88.6744 295.499,90.341 290.5,88.5C 289.779,90.686 289.113,92.8526 288.5,95C 286.741,95.7975 285.074,95.6309 283.5,94.5C 280.269,88.1372 282.269,84.9706 289.5,85C 291.651,83.2261 293.984,81.7261 296.5,80.5C 298.075,76.8733 297.408,73.7066 294.5,71C 295.252,70.3292 295.586,69.4959 295.5,68.5 Z"/></g>
<g><path style="opacity:1" fill="#cbc7cb" d="M 143.5,83.5 C 144.5,83.5 145.5,83.5 146.5,83.5C 146.99,85.9484 146.157,87.615 144,88.5C 140.928,87.119 140.761,85.4523 143.5,83.5 Z"/></g>
<g><path style="opacity:1" fill="#cfcace" d="M 160.5,82.5 C 164.172,82.1826 165.838,83.8493 165.5,87.5C 162.298,87.4633 160.632,85.7967 160.5,82.5 Z"/></g>
<g><path style="opacity:1" fill="#dcd9dc" d="M 149.5,88.5 C 152.491,88.3297 154.491,89.663 155.5,92.5C 153.604,93.4656 151.604,93.7989 149.5,93.5C 149.5,91.8333 149.5,90.1667 149.5,88.5 Z"/></g>
<g><path style="opacity:1" fill="#d8d2d8" d="M 318.5,92.5 C 320.225,92.8425 320.725,93.8425 320,95.5C 318.103,97.0163 315.936,97.683 313.5,97.5C 313.281,96.325 313.614,95.325 314.5,94.5C 316.026,94.0057 317.359,93.339 318.5,92.5 Z"/></g>
<g><path style="opacity:1" fill="#c7c7c7" d="M 308.5,98.5 C 309.5,98.5 310.5,98.5 311.5,98.5C 312.244,101.95 310.91,103.616 307.5,103.5C 307.366,101.708 307.699,100.042 308.5,98.5 Z"/></g>
<g><path style="opacity:1" fill="#d1c3d6" d="M 310.5,106.5 C 311.833,106.5 313.167,106.5 314.5,106.5C 314.884,108.665 314.217,110.332 312.5,111.5C 310.783,110.332 310.116,108.665 310.5,106.5 Z"/></g>
<g><path style="opacity:1" fill="#484848" d="M 231.5,72.5 C 232.376,75.7989 232.543,79.1322 232,82.5C 229.539,81.7819 227.039,81.1153 224.5,80.5C 223.289,81.2739 223.289,82.1072 224.5,83C 221.905,83.2256 219.405,83.7256 217,84.5C 215.533,91.7775 215.199,99.1108 216,106.5C 217.208,113.077 218.041,119.744 218.5,126.5C 217.351,129.436 216.851,132.436 217,135.5C 218.62,137.241 220.12,139.075 221.5,141C 225.541,141.173 229.541,141.673 233.5,142.5C 231.954,143.684 230.287,144.684 228.5,145.5C 229.376,146.251 230.376,146.751 231.5,147C 229.121,147.716 227.121,148.883 225.5,150.5C 223.801,150.66 222.134,150.494 220.5,150C 216.033,146.535 211.867,142.702 208,138.5C 207.501,134.514 207.334,130.514 207.5,126.5C 212.259,125.835 214.259,123.002 213.5,118C 210.828,111.793 208.828,105.293 207.5,98.5C 207.824,96.4311 208.658,96.0977 210,97.5C 210.333,93.8333 210.667,90.1667 211,86.5C 212.662,83.3507 214.495,80.3507 216.5,77.5C 220.866,74.0446 225.866,72.3779 231.5,72.5 Z"/></g>
<g><path style="opacity:1" fill="#dad8da" d="M 298.5,108.5 C 301.084,109.048 302.084,110.715 301.5,113.5C 293.992,114.206 292.992,112.539 298.5,108.5 Z"/></g>
<g><path style="opacity:1" fill="#050505" d="M 209.5,143.5 C 212.964,146.462 216.297,149.629 219.5,153C 220.873,153.875 222.373,154.375 224,154.5C 230.677,152.605 237.177,150.105 243.5,147C 245.794,142.912 247.961,138.745 250,134.5C 255.44,137.609 260.607,141.109 265.5,145C 267.134,145.494 268.801,145.66 270.5,145.5C 271.376,145.369 272.043,145.702 272.5,146.5C 271.235,149.796 270.068,153.129 269,156.5C 268.921,162.953 268.088,169.287 266.5,175.5C 267.169,178.028 268.002,178.028 269,175.5C 269.492,165.531 271.326,155.865 274.5,146.5C 280.003,149.998 285.003,154.998 289.5,161.5C 286.906,165.272 284.073,168.939 281,172.5C 278.195,176.091 277.195,180.091 278,184.5C 279.912,176.84 283.745,170.34 289.5,165C 290.448,164.517 291.448,164.351 292.5,164.5C 296.254,168.548 300.587,171.882 305.5,174.5C 302.502,180.497 299.502,186.497 296.5,192.5C 292.238,189.898 287.738,187.565 283,185.5C 279.924,185.756 276.758,185.923 273.5,186C 272.382,187.074 271.382,188.24 270.5,189.5C 268.415,188.353 266.915,189.02 266,191.5C 262.197,197.439 259.197,203.773 257,210.5C 256.333,207.833 256.333,205.167 257,202.5C 261.609,194.893 266.609,187.559 272,180.5C 272.667,178.833 272.667,177.167 272,175.5C 265.303,185.212 258.969,195.212 253,205.5C 248.177,213.092 247.344,221.092 250.5,229.5C 248.078,235.996 249.578,241.329 255,245.5C 255.945,249.114 256.612,252.781 257,256.5C 258.167,258.333 259.667,259.833 261.5,261C 256.5,261.333 251.5,261.667 246.5,262C 232.58,266.847 218.247,268.68 203.5,267.5C 197.682,265.882 191.682,264.549 185.5,263.5C 179.318,263.091 174.152,265.091 170,269.5C 168.402,267.105 168.236,264.772 169.5,262.5C 180.529,261.046 191.529,261.38 202.5,263.5C 208.32,262.975 213.986,261.809 219.5,260C 214.386,259.891 209.386,259.224 204.5,258C 203.643,257.311 202.977,256.478 202.5,255.5C 204.396,254.534 206.396,254.201 208.5,254.5C 208.5,253.167 208.5,251.833 208.5,250.5C 214.324,247.892 220.157,247.892 226,250.5C 233.834,249.335 241.334,247.168 248.5,244C 242.463,244.809 236.463,246.142 230.5,248C 227.773,248.818 225.106,248.652 222.5,247.5C 230.463,246.351 237.463,243.184 243.5,238C 243.167,237.833 242.833,237.667 242.5,237.5C 233.536,242.63 223.869,245.63 213.5,246.5C 207.166,247.068 200.833,247.234 194.5,247C 196.017,245.315 197.684,243.815 199.5,242.5C 198.051,241.828 196.718,241.161 195.5,240.5C 205.325,237.344 212.325,231.01 216.5,221.5C 216.167,221.167 215.833,220.833 215.5,220.5C 213.539,224.258 211.205,227.758 208.5,231C 200.502,235.944 191.835,238.777 182.5,239.5C 182.47,238.503 182.97,237.836 184,237.5C 190.167,235 196.333,232.5 202.5,230C 197.926,230.021 193.592,231.188 189.5,233.5C 188.548,231.955 188.215,230.288 188.5,228.5C 191.522,228.196 194.522,227.696 197.5,227C 195.695,226.028 194.028,224.861 192.5,223.5C 199.08,220.366 205.746,217.532 212.5,215C 206.348,215.787 200.182,216.954 194,218.5C 193.5,218.333 193,218.167 192.5,218C 194.539,215.626 196.872,213.626 199.5,212C 196.798,211.393 194.132,211.56 191.5,212.5C 189.158,211.664 187.158,210.33 185.5,208.5C 196.134,204.671 206.801,200.838 217.5,197C 207.361,199.276 197.028,200.776 186.5,201.5C 185.865,198.127 185.365,194.794 185,191.5C 189.999,190.083 194.833,188.249 199.5,186C 195.152,185.535 190.819,185.035 186.5,184.5C 186.395,180.313 187.228,176.313 189,172.5C 189.441,165.804 189.441,159.137 189,152.5C 191.316,154.47 193.149,156.804 194.5,159.5C 195.002,160.521 195.668,160.688 196.5,160C 192.919,153.504 189.585,146.837 186.5,140C 190.08,137.022 194.246,135.188 199,134.5C 203.403,139.626 207.07,145.293 210,151.5C 210.252,149.069 209.752,146.735 208.5,144.5C 208.624,143.893 208.957,143.56 209.5,143.5 Z"/></g>
<g><path style="opacity:1" fill="#9a7640" d="M 296.5,134.5 C 300.182,134.335 303.848,134.501 307.5,135C 310.167,136 310.167,137 307.5,138C 303.838,138.281 300.171,138.115 296.5,137.5C 294.36,137.444 292.694,136.777 291.5,135.5C 292.919,134.549 294.585,134.216 296.5,134.5 Z"/></g>
<g><path style="opacity:1" fill="#d2c1aa" d="M 321.5,137.5 C 318.936,137.021 316.436,136.355 314,135.5C 313.059,137.727 311.892,139.727 310.5,141.5C 304.252,140.108 297.918,139.442 291.5,139.5C 291.5,142.167 291.5,144.833 291.5,147.5C 290.526,144.702 289.86,141.702 289.5,138.5C 289.64,136.97 290.307,135.97 291.5,135.5C 292.694,136.777 294.36,137.444 296.5,137.5C 300.171,138.115 303.838,138.281 307.5,138C 310.167,137 310.167,136 307.5,135C 303.848,134.501 300.182,134.335 296.5,134.5C 295.498,132.989 294.831,131.322 294.5,129.5C 297.384,130.383 300.217,130.383 303,129.5C 308.346,131.303 313.846,132.469 319.5,133C 321.107,134.049 321.773,135.549 321.5,137.5 Z"/></g>
<g><path style="opacity:1" fill="#101010" d="M 167.5,142.5 C 171.805,142.842 173.305,145.176 172,149.5C 170.128,153.67 167.628,157.337 164.5,160.5C 163.702,160.043 163.369,159.376 163.5,158.5C 164.961,153.193 166.295,147.859 167.5,142.5 Z"/></g>
<g><path style="opacity:1" fill="#484848" d="M 209.5,143.5 C 208.957,143.56 208.624,143.893 208.5,144.5C 209.752,146.735 210.252,149.069 210,151.5C 207.07,145.293 203.403,139.626 199,134.5C 194.246,135.188 190.08,137.022 186.5,140C 189.585,146.837 192.919,153.504 196.5,160C 195.668,160.688 195.002,160.521 194.5,159.5C 193.149,156.804 191.316,154.47 189,152.5C 189.441,159.137 189.441,165.804 189,172.5C 187.228,176.313 186.395,180.313 186.5,184.5C 190.819,185.035 195.152,185.535 199.5,186C 194.833,188.249 189.999,190.083 185,191.5C 185.365,194.794 185.865,198.127 186.5,201.5C 197.028,200.776 207.361,199.276 217.5,197C 206.801,200.838 196.134,204.671 185.5,208.5C 187.158,210.33 189.158,211.664 191.5,212.5C 194.132,211.56 196.798,211.393 199.5,212C 196.872,213.626 194.539,215.626 192.5,218C 193,218.167 193.5,218.333 194,218.5C 200.182,216.954 206.348,215.787 212.5,215C 205.746,217.532 199.08,220.366 192.5,223.5C 194.028,224.861 195.695,226.028 197.5,227C 194.522,227.696 191.522,228.196 188.5,228.5C 188.215,230.288 188.548,231.955 189.5,233.5C 193.592,231.188 197.926,230.021 202.5,230C 196.333,232.5 190.167,235 184,237.5C 182.97,237.836 182.47,238.503 182.5,239.5C 176.779,242.864 170.779,245.864 164.5,248.5C 167.447,244.011 171.281,239.677 176,235.5C 177.133,218.188 177.8,200.855 178,183.5C 178.513,182.473 179.013,181.473 179.5,180.5C 181.011,178.524 181.844,176.191 182,173.5C 182.805,170.304 182.638,167.304 181.5,164.5C 182.903,159.613 183.903,154.613 184.5,149.5C 183.811,143.747 182.478,138.413 180.5,133.5C 180.611,132.883 180.944,132.383 181.5,132C 189.372,131.875 197.039,130.708 204.5,128.5C 204.541,134.169 206.208,139.169 209.5,143.5 Z"/></g>
<g><path style="opacity:1" fill="#c5ac81" d="M 321.5,137.5 C 323.06,137.481 324.56,137.148 326,136.5C 333.835,138.96 339.668,143.627 343.5,150.5C 341.744,151.552 341.077,153.219 341.5,155.5C 340.167,155.5 338.833,155.5 337.5,155.5C 337.67,154.178 337.337,153.011 336.5,152C 334.5,151.667 332.5,151.333 330.5,151C 329.122,149.287 327.455,147.953 325.5,147C 321.465,145.933 317.465,144.766 313.5,143.5C 312.348,146.106 312.182,148.773 313,151.5C 317.833,155.167 322.667,158.833 327.5,162.5C 332.1,161.557 336.767,161.223 341.5,161.5C 341.5,161.833 341.5,162.167 341.5,162.5C 336.354,162.181 331.354,162.847 326.5,164.5C 321.716,160.443 316.383,157.443 310.5,155.5C 311.787,151.732 311.787,148.065 310.5,144.5C 310.5,143.5 310.5,142.5 310.5,141.5C 311.892,139.727 313.059,137.727 314,135.5C 316.436,136.355 318.936,137.021 321.5,137.5 Z"/></g>
<g><path style="opacity:1" fill="#343637" d="M 310.5,141.5 C 310.5,142.5 310.5,143.5 310.5,144.5C 310.5,146.167 310.5,147.833 310.5,149.5C 304.259,149.252 298.259,150.252 292.5,152.5C 291.699,150.958 291.366,149.292 291.5,147.5C 291.5,144.833 291.5,142.167 291.5,139.5C 297.918,139.442 304.252,140.108 310.5,141.5 Z"/></g>
<g><path style="opacity:1" fill="#5f605e" d="M 310.5,144.5 C 311.787,148.065 311.787,151.732 310.5,155.5C 309.448,155.649 308.448,155.483 307.5,155C 308.672,154.581 309.672,153.915 310.5,153C 305.315,151.945 300.482,152.778 296,155.5C 294.358,155.022 293.191,154.022 292.5,152.5C 298.259,150.252 304.259,149.252 310.5,149.5C 310.5,147.833 310.5,146.167 310.5,144.5 Z"/></g>
<g><path style="opacity:1" fill="#f1ecda" d="M 341.5,155.5 C 341.5,157.5 341.5,159.5 341.5,161.5C 336.767,161.223 332.1,161.557 327.5,162.5C 322.667,158.833 317.833,155.167 313,151.5C 312.182,148.773 312.348,146.106 313.5,143.5C 317.465,144.766 321.465,145.933 325.5,147C 327.455,147.953 329.122,149.287 330.5,151C 332.5,151.333 334.5,151.667 336.5,152C 337.337,153.011 337.67,154.178 337.5,155.5C 338.833,155.5 340.167,155.5 341.5,155.5 Z"/></g>
<g><path style="opacity:1" fill="#9f8c70" d="M 360.5,143.5 C 365.381,148.592 368.714,154.592 370.5,161.5C 371.288,165.868 372.288,170.201 373.5,174.5C 373.333,175.5 373.167,176.5 373,177.5C 370.72,165.604 366.22,154.604 359.5,144.5C 359.624,143.893 359.957,143.56 360.5,143.5 Z"/></g>
<g><path style="opacity:1" fill="#ac946f" d="M 354.5,141.5 C 353.903,141.735 353.57,142.235 353.5,143C 354.754,147.127 356.587,150.961 359,154.5C 360.085,160.85 361.252,167.184 362.5,173.5C 363.17,171.709 363.837,170.042 364.5,168.5C 364.182,173.659 364.848,178.659 366.5,183.5C 365.542,183.047 364.708,182.381 364,181.5C 364.125,187.136 364.458,192.802 365,198.5C 365.726,201.285 367.226,201.952 369.5,200.5C 367.92,203.659 366.92,206.993 366.5,210.5C 363.982,209.736 361.649,208.736 359.5,207.5C 360.496,207.586 361.329,207.252 362,206.5C 362.547,202.84 363.047,199.173 363.5,195.5C 361.631,179.862 358.465,164.529 354,149.5C 351.062,143.946 347.896,138.613 344.5,133.5C 345.721,132.535 347.054,132.702 348.5,134C 350.334,136.663 352.334,139.163 354.5,141.5 Z"/></g>
<g><path style="opacity:1" fill="#0a0a0a" d="M 180.5,133.5 C 182.478,138.413 183.811,143.747 184.5,149.5C 183.903,154.613 182.903,159.613 181.5,164.5C 180.628,169.527 179.628,174.527 178.5,179.5C 176.707,181.426 175.707,183.759 175.5,186.5C 169.828,189.713 164.828,188.88 160.5,184C 159.552,183.517 158.552,183.351 157.5,183.5C 155.858,181.919 153.858,181.253 151.5,181.5C 151.167,181.5 150.833,181.5 150.5,181.5C 150.281,180.325 150.614,179.325 151.5,178.5C 156.409,175.014 159.576,170.348 161,164.5C 161.816,163.177 162.983,162.511 164.5,162.5C 167.147,160.189 169.814,157.856 172.5,155.5C 174.614,161.473 176.114,167.473 177,173.5C 178.545,171.791 179.378,169.791 179.5,167.5C 178.669,161.329 177.669,155.329 176.5,149.5C 175.132,144.07 175.465,138.737 177.5,133.5C 178.5,133.5 179.5,133.5 180.5,133.5 Z"/></g>
<g><path style="opacity:1" fill="#a0783c" d="M 354.5,141.5 C 360.879,147.911 365.213,155.578 367.5,164.5C 366.476,165.852 365.476,167.185 364.5,168.5C 363.837,170.042 363.17,171.709 362.5,173.5C 361.252,167.184 360.085,160.85 359,154.5C 356.587,150.961 354.754,147.127 353.5,143C 353.57,142.235 353.903,141.735 354.5,141.5 Z"/></g>
<g><path style="opacity:1" fill="#292725" d="M 343.5,150.5 C 344.209,151.404 345.209,151.737 346.5,151.5C 348.272,156.808 347.438,157.474 344,153.5C 343.986,155.471 344.319,157.471 345,159.5C 348.032,164.52 351.032,169.52 354,174.5C 354.667,175.833 355.333,175.833 356,174.5C 356.239,175.788 355.739,176.788 354.5,177.5C 353.5,177.5 352.5,177.5 351.5,177.5C 351.598,175.447 350.931,173.78 349.5,172.5C 347.784,168.397 345.117,165.064 341.5,162.5C 341.5,162.167 341.5,161.833 341.5,161.5C 341.5,159.5 341.5,157.5 341.5,155.5C 341.077,153.219 341.744,151.552 343.5,150.5 Z"/></g>
<g><path style="opacity:1" fill="#545454" d="M 176.5,149.5 C 177.669,155.329 178.669,161.329 179.5,167.5C 179.378,169.791 178.545,171.791 177,173.5C 176.114,167.473 174.614,161.473 172.5,155.5C 169.814,157.856 167.147,160.189 164.5,162.5C 163.722,161.844 163.056,161.011 162.5,160C 162.57,159.235 162.903,158.735 163.5,158.5C 163.369,159.376 163.702,160.043 164.5,160.5C 167.628,157.337 170.128,153.67 172,149.5C 173.305,145.176 171.805,142.842 167.5,142.5C 170.886,140.277 173.386,137.277 175,133.5C 174.604,137.281 174.104,141.114 173.5,145C 173.485,148.441 174.318,151.607 176,154.5C 176.494,152.866 176.66,151.199 176.5,149.5 Z"/></g>
<g><path style="opacity:1" fill="#dedcde" d="M 123.5,163.5 C 127.527,163.26 128.861,164.926 127.5,168.5C 125.069,167.64 123.736,165.973 123.5,163.5 Z"/></g>
<g><path style="opacity:1" fill="#919191" d="M 289.5,161.5 C 290.5,162.5 291.5,163.5 292.5,164.5C 291.448,164.351 290.448,164.517 289.5,165C 283.745,170.34 279.912,176.84 278,184.5C 277.195,180.091 278.195,176.091 281,172.5C 284.073,168.939 286.906,165.272 289.5,161.5 Z"/></g>
<g><path style="opacity:1" fill="#5c5c5e" d="M 346.5,151.5 C 352.55,157.936 356.216,165.602 357.5,174.5C 357.657,175.873 357.49,177.207 357,178.5C 356.617,177.944 356.117,177.611 355.5,177.5C 355.167,177.5 354.833,177.5 354.5,177.5C 355.739,176.788 356.239,175.788 356,174.5C 355.333,175.833 354.667,175.833 354,174.5C 351.032,169.52 348.032,164.52 345,159.5C 344.319,157.471 343.986,155.471 344,153.5C 347.438,157.474 348.272,156.808 346.5,151.5 Z"/></g>
<g><path style="opacity:1" fill="#8a8a8a" d="M 274.5,146.5 C 271.326,155.865 269.492,165.531 269,175.5C 268.002,178.028 267.169,178.028 266.5,175.5C 268.088,169.287 268.921,162.953 269,156.5C 270.068,153.129 271.235,149.796 272.5,146.5C 272.043,145.702 271.376,145.369 270.5,145.5C 272.637,141.556 273.97,141.889 274.5,146.5 Z"/></g>
<g><path style="opacity:1" fill="#997847" d="M 369.5,200.5 C 367.226,201.952 365.726,201.285 365,198.5C 364.458,192.802 364.125,187.136 364,181.5C 364.708,182.381 365.542,183.047 366.5,183.5C 367.376,183.631 368.043,183.298 368.5,182.5C 367.44,178.13 366.607,173.797 366,169.5C 368.726,172.286 370.393,175.619 371,179.5C 371.66,186.584 371.16,193.584 369.5,200.5 Z"/></g>
<g><path style="opacity:1" fill="#989898" d="M 181.5,164.5 C 182.638,167.304 182.805,170.304 182,173.5C 181.844,176.191 181.011,178.524 179.5,180.5C 179.5,179.833 179.167,179.5 178.5,179.5C 179.628,174.527 180.628,169.527 181.5,164.5 Z"/></g>
<g><path style="opacity:1" fill="#d8c195" d="M 324.5,169.5 C 324.552,171.903 324.219,174.236 323.5,176.5C 322.361,179.004 321.694,181.67 321.5,184.5C 318.772,184.829 316.438,184.163 314.5,182.5C 313.5,181.5 312.5,180.5 311.5,179.5C 310.71,178.599 309.71,177.932 308.5,177.5C 307.833,176.833 307.167,176.167 306.5,175.5C 312.437,173.299 318.437,171.299 324.5,169.5 Z"/></g>
<g><path style="opacity:1" fill="#ddd8dd" d="M 129.5,168.5 C 132.258,168.757 133.925,170.257 134.5,173C 132.799,174.86 131.799,177.027 131.5,179.5C 129.801,179.34 128.134,179.506 126.5,180C 122.603,183.756 120.603,182.923 120.5,177.5C 127.238,178.404 130.238,175.404 129.5,168.5 Z"/></g>
<g><path style="opacity:1" fill="#171717" d="M 308.5,177.5 C 309.71,177.932 310.71,178.599 311.5,179.5C 309.328,181.945 306.662,183.945 303.5,185.5C 302.592,184.21 302.759,182.877 304,181.5C 304.876,179.365 306.376,178.031 308.5,177.5 Z"/></g>
<g><path style="opacity:1" fill="#bda06f" d="M 349.5,173.5 C 349.631,174.376 349.298,175.043 348.5,175.5C 341.947,178.848 335.114,181.515 328,183.5C 326.989,182.663 325.822,182.33 324.5,182.5C 324.795,180.265 324.461,178.265 323.5,176.5C 324.219,174.236 324.552,171.903 324.5,169.5C 324.783,168.711 325.283,168.044 326,167.5C 326.497,170.146 326.664,172.813 326.5,175.5C 333.302,175.467 339.969,174.467 346.5,172.5C 347.584,172.685 348.584,173.018 349.5,173.5 Z"/></g>
<g><path style="opacity:1" fill="#c9c0c9" d="M 139.5,181.5 C 142.932,181.248 143.932,182.581 142.5,185.5C 140.45,184.923 139.45,183.59 139.5,181.5 Z"/></g>
<g><path style="opacity:1" fill="#936b34" d="M 349.5,172.5 C 350.931,173.78 351.598,175.447 351.5,177.5C 352.5,177.5 353.5,177.5 354.5,177.5C 354.833,177.5 355.167,177.5 355.5,177.5C 356.764,187.159 356.764,196.826 355.5,206.5C 351.18,205.527 350.18,203.027 352.5,199C 352.435,196.409 351.935,193.909 351,191.5C 349.989,190.663 348.822,190.33 347.5,190.5C 345.372,189.371 343.039,189.204 340.5,190C 338.68,190.2 337.347,191.034 336.5,192.5C 331.868,189.019 326.868,186.352 321.5,184.5C 321.694,181.67 322.361,179.004 323.5,176.5C 324.461,178.265 324.795,180.265 324.5,182.5C 325.822,182.33 326.989,182.663 328,183.5C 335.114,181.515 341.947,178.848 348.5,175.5C 349.298,175.043 349.631,174.376 349.5,173.5C 349.5,173.167 349.5,172.833 349.5,172.5 Z"/></g>
<g><path style="opacity:1" fill="#0b090b" d="M 156.5,185.5 C 157.873,185.343 159.207,185.51 160.5,186C 161.551,187.385 162.884,188.385 164.5,189C 167.833,189.333 171.167,189.667 174.5,190C 169.937,197.627 165.77,205.46 162,213.5C 162.32,210.54 162.32,207.54 162,204.5C 159.834,210.494 157.668,216.494 155.5,222.5C 154.609,223.59 153.609,223.59 152.5,222.5C 151.719,223.729 151.219,225.062 151,226.5C 146.635,228.535 143.635,231.869 142,236.5C 140,238.5 138,240.5 136,242.5C 135.502,245.482 135.335,248.482 135.5,251.5C 134.766,252.708 134.433,254.041 134.5,255.5C 133.5,256.167 132.5,256.833 131.5,257.5C 127.835,259.374 127.835,260.707 131.5,261.5C 131.649,262.552 131.483,263.552 131,264.5C 128.582,266.768 126.082,268.768 123.5,270.5C 121.505,268.36 119.005,267.027 116,266.5C 115.817,260.916 115.817,255.25 116,249.5C 121.496,245.221 125.996,240.221 129.5,234.5C 131.35,231.631 133.017,228.631 134.5,225.5C 136.24,221.281 137.573,216.947 138.5,212.5C 139.167,212.5 139.5,212.167 139.5,211.5C 140.338,211.158 140.672,210.492 140.5,209.5C 141.906,209.027 142.573,208.027 142.5,206.5C 142.5,206.167 142.5,205.833 142.5,205.5C 143.167,205.5 143.5,205.167 143.5,204.5C 143.5,204.167 143.5,203.833 143.5,203.5C 144.167,203.5 144.5,203.167 144.5,202.5C 144.5,202.167 144.5,201.833 144.5,201.5C 145.167,201.5 145.5,201.167 145.5,200.5C 145.5,199.833 145.5,199.167 145.5,198.5C 146.338,198.158 146.672,197.492 146.5,196.5C 147.167,196.5 147.5,196.167 147.5,195.5C 151.212,192.789 154.212,189.456 156.5,185.5 Z"/></g>
<g><path style="opacity:1" fill="#8e8d8c" d="M 305.5,174.5 C 306.167,174.5 306.5,174.833 306.5,175.5C 307.167,176.167 307.833,176.833 308.5,177.5C 306.376,178.031 304.876,179.365 304,181.5C 302.759,182.877 302.592,184.21 303.5,185.5C 306.662,183.945 309.328,181.945 311.5,179.5C 312.5,180.5 313.5,181.5 314.5,182.5C 309.226,183.887 304.393,186.22 300,189.5C 298.172,194.791 298.006,200.125 299.5,205.5C 300.5,205.5 301.5,205.5 302.5,205.5C 302.5,205.833 302.5,206.167 302.5,206.5C 299.477,206.105 298.477,207.105 299.5,209.5C 299.192,210.308 298.692,210.975 298,211.5C 296.554,207.348 296.387,203.181 297.5,199C 296.833,198 296.167,197 295.5,196C 295.989,194.862 296.322,193.695 296.5,192.5C 299.502,186.497 302.502,180.497 305.5,174.5 Z"/></g>
<g><path style="opacity:1" fill="#dcdbda" d="M 296.5,192.5 C 296.322,193.695 295.989,194.862 295.5,196C 296.167,197 296.833,198 297.5,199C 296.387,203.181 296.554,207.348 298,211.5C 298.692,210.975 299.192,210.308 299.5,209.5C 298.477,207.105 299.477,206.105 302.5,206.5C 307.467,206.529 312.133,206.196 316.5,205.5C 321.142,208.251 326.142,210.251 331.5,211.5C 332.911,213.914 334.911,215.581 337.5,216.5C 331.843,221.745 325.177,224.579 317.5,225C 316.244,224.583 315.577,223.75 315.5,222.5C 315.953,221.542 316.619,220.708 317.5,220C 317.272,219.601 316.938,219.435 316.5,219.5C 311.363,213.049 306.03,212.882 300.5,219C 301.029,220.559 301.696,222.059 302.5,223.5C 302.043,224.298 301.376,224.631 300.5,224.5C 299.5,226.167 298.167,227.5 296.5,228.5C 295.504,228.414 294.671,228.748 294,229.5C 293.503,232.146 293.336,234.813 293.5,237.5C 293.5,238.833 293.5,240.167 293.5,241.5C 293.118,246.161 294.118,250.494 296.5,254.5C 297.324,251.215 297.824,247.882 298,244.5C 298.333,244.167 298.667,243.833 299,243.5C 299.483,244.448 299.649,245.448 299.5,246.5C 300.5,246.5 301.5,246.5 302.5,246.5C 302.5,248.833 302.5,251.167 302.5,253.5C 302.5,254.833 302.5,256.167 302.5,257.5C 298.415,257.399 297.082,259.066 298.5,262.5C 298.715,264.179 298.048,265.179 296.5,265.5C 295.006,263.549 293.506,260.883 292,257.5C 291.617,258.056 291.117,258.389 290.5,258.5C 289.602,257.842 288.602,257.176 287.5,256.5C 288.24,253.821 287.906,251.154 286.5,248.5C 282.829,251.327 281.662,254.994 283,259.5C 283.881,263.709 285.047,267.709 286.5,271.5C 286.201,273.455 285.201,274.789 283.5,275.5C 282.5,275.5 281.5,275.5 280.5,275.5C 280.789,269.385 278.122,265.385 272.5,263.5C 271.736,260.886 270.07,259.719 267.5,260C 272.462,264.642 272.795,269.475 268.5,274.5C 266.712,274.785 265.045,274.452 263.5,273.5C 262.327,270.485 261.327,267.485 260.5,264.5C 258.667,264.167 256.833,263.833 255,263.5C 248.018,264.384 241.185,265.884 234.5,268C 225.533,269.106 216.533,269.606 207.5,269.5C 205.369,268.686 203.036,268.186 200.5,268C 201.448,267.517 202.448,267.351 203.5,267.5C 218.247,268.68 232.58,266.847 246.5,262C 251.5,261.667 256.5,261.333 261.5,261C 259.667,259.833 258.167,258.333 257,256.5C 256.612,252.781 255.945,249.114 255,245.5C 249.578,241.329 248.078,235.996 250.5,229.5C 247.344,221.092 248.177,213.092 253,205.5C 258.969,195.212 265.303,185.212 272,175.5C 272.667,177.167 272.667,178.833 272,180.5C 266.609,187.559 261.609,194.893 257,202.5C 256.333,205.167 256.333,207.833 257,210.5C 259.197,203.773 262.197,197.439 266,191.5C 266.915,189.02 268.415,188.353 270.5,189.5C 271.382,188.24 272.382,187.074 273.5,186C 276.758,185.923 279.924,185.756 283,185.5C 287.738,187.565 292.238,189.898 296.5,192.5 Z"/></g>
<g><path style="opacity:1" fill="#c6ae80" d="M 347.5,190.5 C 345.133,192.023 342.633,193.356 340,194.5C 338.697,194.022 337.531,193.355 336.5,192.5C 337.347,191.034 338.68,190.2 340.5,190C 343.039,189.204 345.372,189.371 347.5,190.5 Z"/></g>
<g><path style="opacity:1" fill="#baaa93" d="M 357.5,174.5 C 358.616,178.287 359.282,182.287 359.5,186.5C 358.871,193.237 357.871,199.904 356.5,206.5C 356.167,206.5 355.833,206.5 355.5,206.5C 356.764,196.826 356.764,187.159 355.5,177.5C 356.117,177.611 356.617,177.944 357,178.5C 357.49,177.207 357.657,175.873 357.5,174.5 Z"/></g>
<g><path style="opacity:1" fill="#dad8da" d="M 118.5,195.5 C 123.159,195.015 124.492,196.848 122.5,201C 121.216,201.684 120.049,201.517 119,200.5C 118.506,198.866 118.34,197.199 118.5,195.5 Z"/></g>
<g><path style="opacity:1" fill="#dddddd" d="M 178.5,179.5 C 179.167,179.5 179.5,179.833 179.5,180.5C 179.013,181.473 178.513,182.473 178,183.5C 177.8,200.855 177.133,218.188 176,235.5C 171.281,239.677 167.447,244.011 164.5,248.5C 170.779,245.864 176.779,242.864 182.5,239.5C 191.835,238.777 200.502,235.944 208.5,231C 211.205,227.758 213.539,224.258 215.5,220.5C 215.833,220.833 216.167,221.167 216.5,221.5C 212.325,231.01 205.325,237.344 195.5,240.5C 193.143,240.337 190.81,240.503 188.5,241C 180.325,244.919 171.991,248.585 163.5,252C 166.254,252.272 168.921,252.772 171.5,253.5C 171.5,254.167 171.5,254.833 171.5,255.5C 167.49,256.589 163.99,258.589 161,261.5C 160.506,263.134 160.34,264.801 160.5,266.5C 156.963,266.311 153.63,266.977 150.5,268.5C 150.25,267.078 149.417,266.078 148,265.5C 148.135,262.246 147.969,259.08 147.5,256C 144.695,255.558 142.028,256.058 139.5,257.5C 137.823,256.813 136.156,256.146 134.5,255.5C 134.433,254.041 134.766,252.708 135.5,251.5C 136.042,248.35 137.209,245.35 139,242.5C 154.443,228.719 166.443,212.386 175,193.5C 175.497,191.19 175.663,188.857 175.5,186.5C 175.707,183.759 176.707,181.426 178.5,179.5 Z"/></g>
<g><path style="opacity:1" fill="#9b9b9b" d="M 242.5,190.5 C 243.873,190.343 245.207,190.51 246.5,191C 236.542,196.143 226.209,200.477 215.5,204C 212.558,205.124 209.558,205.458 206.5,205C 219.012,201.223 231.012,196.39 242.5,190.5 Z"/></g>
<g><path style="opacity:1" fill="#a1a1a1" d="M 247.5,192.5 C 249.842,192.775 249.842,193.608 247.5,195C 235.829,202.898 223.163,207.732 209.5,209.5C 215.878,206.522 222.544,204.355 229.5,203C 235.785,199.763 241.785,196.263 247.5,192.5 Z"/></g>
<g><path style="opacity:1" fill="#d9c8a8" d="M 360.5,143.5 C 359.957,143.56 359.624,143.893 359.5,144.5C 366.22,154.604 370.72,165.604 373,177.5C 373.167,176.5 373.333,175.5 373.5,174.5C 372.288,170.201 371.288,165.868 370.5,161.5C 373.709,168.365 375.543,175.698 376,183.5C 376.814,194.24 376.314,204.907 374.5,215.5C 372.358,213.03 369.691,211.364 366.5,210.5C 366.92,206.993 367.92,203.659 369.5,200.5C 371.16,193.584 371.66,186.584 371,179.5C 370.393,175.619 368.726,172.286 366,169.5C 366.607,173.797 367.44,178.13 368.5,182.5C 368.043,183.298 367.376,183.631 366.5,183.5C 364.848,178.659 364.182,173.659 364.5,168.5C 365.476,167.185 366.476,165.852 367.5,164.5C 365.213,155.578 360.879,147.911 354.5,141.5C 352.334,139.163 350.334,136.663 348.5,134C 347.054,132.702 345.721,132.535 344.5,133.5C 343.596,132.791 343.263,131.791 343.5,130.5C 345.783,130.608 347.783,131.441 349.5,133C 353.668,136.002 357.335,139.502 360.5,143.5 Z"/></g>
<g><path style="opacity:1" fill="#9d7847" d="M 316.5,205.5 C 312.133,206.196 307.467,206.529 302.5,206.5C 302.5,206.167 302.5,205.833 302.5,205.5C 303.067,202.697 304.4,200.364 306.5,198.5C 309.9,200.856 313.233,203.189 316.5,205.5 Z"/></g>
<g><path style="opacity:1" fill="#dbd0db" d="M 151.5,181.5 C 153.858,181.253 155.858,181.919 157.5,183.5C 157.167,184.167 156.833,184.833 156.5,185.5C 154.212,189.456 151.212,192.789 147.5,195.5C 146.833,195.5 146.5,195.833 146.5,196.5C 145.662,196.842 145.328,197.508 145.5,198.5C 144.167,199.167 144.167,199.833 145.5,200.5C 145.5,201.167 145.167,201.5 144.5,201.5C 143.167,201.833 143.167,202.167 144.5,202.5C 144.5,203.167 144.167,203.5 143.5,203.5C 142.167,203.833 142.167,204.167 143.5,204.5C 143.5,205.167 143.167,205.5 142.5,205.5C 141.167,205.833 141.167,206.167 142.5,206.5C 142.573,208.027 141.906,209.027 140.5,209.5C 139.662,209.842 139.328,210.508 139.5,211.5C 138.833,211.5 138.5,211.833 138.5,212.5C 136.298,211.208 134.631,209.374 133.5,207C 129.741,205.999 128.074,203.499 128.5,199.5C 129.873,199.343 131.207,199.51 132.5,200C 133.305,201.972 134.639,203.472 136.5,204.5C 137.72,204.113 138.387,203.28 138.5,202C 136.987,200.121 136.321,197.954 136.5,195.5C 142.554,196.168 146.554,193.668 148.5,188C 150.025,186.991 151.692,186.491 153.5,186.5C 153.635,184.446 152.968,182.779 151.5,181.5 Z"/></g>
<g><path style="opacity:1" fill="#282828" d="M 265.5,198.5 C 266.124,198.917 266.457,199.584 266.5,200.5C 265.747,206.804 265.247,213.137 265,219.5C 264.667,217.167 264.333,214.833 264,212.5C 262.536,211.541 261.703,210.208 261.5,208.5C 262.843,205.15 264.177,201.817 265.5,198.5 Z"/></g>
<g><path style="opacity:1" fill="#afafaf" d="M 253.5,195.5 C 254.043,195.56 254.376,195.893 254.5,196.5C 253.5,197.833 252.5,199.167 251.5,200.5C 245.401,204.429 239.735,208.929 234.5,214C 233.241,214.982 231.908,215.315 230.5,215C 238.238,208.482 245.905,201.982 253.5,195.5 Z"/></g>
<g><path style="opacity:1" fill="#0d0a0a" d="M 314.5,182.5 C 316.438,184.163 318.772,184.829 321.5,184.5C 326.868,186.352 331.868,189.019 336.5,192.5C 337.531,193.355 338.697,194.022 340,194.5C 342.633,193.356 345.133,192.023 347.5,190.5C 348.822,190.33 349.989,190.663 351,191.5C 351.935,193.909 352.435,196.409 352.5,199C 350.18,203.027 351.18,205.527 355.5,206.5C 355.833,206.5 356.167,206.5 356.5,206.5C 357.209,207.404 358.209,207.737 359.5,207.5C 361.649,208.736 363.982,209.736 366.5,210.5C 369.691,211.364 372.358,213.03 374.5,215.5C 378.439,220.281 378.439,225.114 374.5,230C 372.071,230.703 369.738,230.537 367.5,229.5C 366.248,227.661 366.248,225.828 367.5,224C 366.128,223.598 364.795,223.098 363.5,222.5C 363.08,224.326 363.08,226.326 363.5,228.5C 362.5,228.5 361.5,228.5 360.5,228.5C 359.876,226.246 358.543,224.579 356.5,223.5C 356.167,223.5 355.833,223.5 355.5,223.5C 353.833,221.5 352.167,219.5 350.5,217.5C 349.508,215.974 348.008,215.307 346,215.5C 343.502,215.917 341.002,216.251 338.5,216.5C 338.167,216.5 337.833,216.5 337.5,216.5C 334.911,215.581 332.911,213.914 331.5,211.5C 326.142,210.251 321.142,208.251 316.5,205.5C 313.233,203.189 309.9,200.856 306.5,198.5C 304.4,200.364 303.067,202.697 302.5,205.5C 301.5,205.5 300.5,205.5 299.5,205.5C 298.006,200.125 298.172,194.791 300,189.5C 304.393,186.22 309.226,183.887 314.5,182.5 Z"/></g>
<g><path style="opacity:1" fill="#484848" d="M 157.5,183.5 C 158.552,183.351 159.552,183.517 160.5,184C 164.828,188.88 169.828,189.713 175.5,186.5C 175.663,188.857 175.497,191.19 175,193.5C 166.443,212.386 154.443,228.719 139,242.5C 137.209,245.35 136.042,248.35 135.5,251.5C 135.335,248.482 135.502,245.482 136,242.5C 138,240.5 140,238.5 142,236.5C 143.635,231.869 146.635,228.535 151,226.5C 151.219,225.062 151.719,223.729 152.5,222.5C 153.609,223.59 154.609,223.59 155.5,222.5C 157.668,216.494 159.834,210.494 162,204.5C 162.32,207.54 162.32,210.54 162,213.5C 165.77,205.46 169.937,197.627 174.5,190C 171.167,189.667 167.833,189.333 164.5,189C 162.884,188.385 161.551,187.385 160.5,186C 159.207,185.51 157.873,185.343 156.5,185.5C 156.833,184.833 157.167,184.167 157.5,183.5 Z"/></g>
<g><path style="opacity:1" fill="#e7d8b5" d="M 316.5,219.5 C 313.422,218.285 310.422,217.118 307.5,216C 309.993,217.566 311.993,219.566 313.5,222C 310.627,229.808 306.293,230.641 300.5,224.5C 301.376,224.631 302.043,224.298 302.5,223.5C 301.696,222.059 301.029,220.559 300.5,219C 306.03,212.882 311.363,213.049 316.5,219.5 Z"/></g>
<g><path style="opacity:1" fill="#8a6c44" d="M 316.5,219.5 C 316.938,219.435 317.272,219.601 317.5,220C 316.619,220.708 315.953,221.542 315.5,222.5C 314.069,223.78 313.402,225.447 313.5,227.5C 318.58,227.75 323.58,227.25 328.5,226C 332.344,223.578 336.01,220.911 339.5,218C 338.944,217.617 338.611,217.117 338.5,216.5C 341.002,216.251 343.502,215.917 346,215.5C 348.008,215.307 349.508,215.974 350.5,217.5C 349.026,218.436 348.026,219.77 347.5,221.5C 345.883,224.784 343.55,227.451 340.5,229.5C 340.5,227.833 340.5,226.167 340.5,224.5C 341.675,224.719 342.675,224.386 343.5,223.5C 344.994,221.426 346.327,219.26 347.5,217C 343.133,216.087 340.633,217.921 340,222.5C 336.902,226.107 333.402,229.107 329.5,231.5C 324.585,232.883 319.585,233.883 314.5,234.5C 314.167,233.833 313.833,233.167 313.5,232.5C 309.322,230.694 304.989,229.027 300.5,227.5C 299.264,228.246 297.93,228.579 296.5,228.5C 298.167,227.5 299.5,226.167 300.5,224.5C 306.293,230.641 310.627,229.808 313.5,222C 311.993,219.566 309.993,217.566 307.5,216C 310.422,217.118 313.422,218.285 316.5,219.5 Z"/></g>
<g><path style="opacity:1" fill="#d1b88d" d="M 337.5,216.5 C 337.833,216.5 338.167,216.5 338.5,216.5C 338.611,217.117 338.944,217.617 339.5,218C 336.01,220.911 332.344,223.578 328.5,226C 323.58,227.25 318.58,227.75 313.5,227.5C 313.402,225.447 314.069,223.78 315.5,222.5C 315.577,223.75 316.244,224.583 317.5,225C 325.177,224.579 331.843,221.745 337.5,216.5 Z"/></g>
<g><path style="opacity:1" fill="#e0d8df" d="M 134.5,225.5 C 133.017,228.631 131.35,231.631 129.5,234.5C 124.208,230.892 118.874,227.225 113.5,223.5C 112.614,222.675 112.281,221.675 112.5,220.5C 117.742,221.611 122.742,223.611 127.5,226.5C 129.837,223.745 132.171,223.412 134.5,225.5 Z"/></g>
<g><path style="opacity:1" fill="#5b3a18" d="M 340.5,229.5 C 339.833,230.833 338.833,231.833 337.5,232.5C 335.8,232.626 334.3,233.293 333,234.5C 331.05,234.293 329.884,233.293 329.5,231.5C 333.402,229.107 336.902,226.107 340,222.5C 340.633,217.921 343.133,216.087 347.5,217C 346.327,219.26 344.994,221.426 343.5,223.5C 342.675,224.386 341.675,224.719 340.5,224.5C 340.5,226.167 340.5,227.833 340.5,229.5 Z"/></g>
<g><path style="opacity:1" fill="#454241" d="M 313.5,232.5 C 307.167,232.5 300.833,232.5 294.5,232.5C 294.5,234.167 294.5,235.833 294.5,237.5C 294.167,237.5 293.833,237.5 293.5,237.5C 293.336,234.813 293.503,232.146 294,229.5C 294.671,228.748 295.504,228.414 296.5,228.5C 297.93,228.579 299.264,228.246 300.5,227.5C 304.989,229.027 309.322,230.694 313.5,232.5 Z"/></g>
<g><path style="opacity:1" fill="#767676" d="M 244.5,211.5 C 246.028,211.517 246.528,212.184 246,213.5C 234.261,225.58 221.094,235.747 206.5,244C 205.5,244.667 204.5,244.667 203.5,244C 219.393,235.937 233.06,225.103 244.5,211.5 Z"/></g>
<g><path style="opacity:1" fill="#0c0807" d="M 313.5,232.5 C 313.833,233.167 314.167,233.833 314.5,234.5C 313.167,235.167 311.833,235.833 310.5,236.5C 305.213,237.342 299.88,237.676 294.5,237.5C 294.5,235.833 294.5,234.167 294.5,232.5C 300.833,232.5 307.167,232.5 313.5,232.5 Z"/></g>
<g><path style="opacity:1" fill="#393939" d="M 173.5,227.5 C 174.376,227.369 175.043,227.702 175.5,228.5C 172.017,235.854 166.351,239.687 158.5,240C 163.761,237.455 168.594,234.288 173,230.5C 173.483,229.552 173.649,228.552 173.5,227.5 Z"/></g>
<g><path style="opacity:1" fill="#43200d" d="M 293.5,241.5 C 293.5,240.167 293.5,238.833 293.5,237.5C 293.833,237.5 294.167,237.5 294.5,237.5C 299.88,237.676 305.213,237.342 310.5,236.5C 315.976,236.773 321.476,235.773 327,233.5C 332.715,235.979 332.715,236.646 327,235.5C 319.052,239.872 310.552,241.872 301.5,241.5C 301.181,237.7 300.181,237.534 298.5,241C 296.866,241.494 295.199,241.66 293.5,241.5 Z"/></g>
<g><path style="opacity:1" fill="#92734c" d="M 348.5,225.5 C 349.675,225.281 350.675,225.614 351.5,226.5C 354.998,232.474 353.998,237.474 348.5,241.5C 348.924,238.646 349.924,235.979 351.5,233.5C 349.955,232.548 348.288,232.215 346.5,232.5C 346.322,235.216 345.822,237.883 345,240.5C 342.04,242.509 339.54,244.842 337.5,247.5C 337.5,246.833 337.5,246.167 337.5,245.5C 342.044,239.296 345.71,232.63 348.5,225.5 Z"/></g>
<g><path style="opacity:1" fill="#4f4f4f" d="M 195.5,240.5 C 196.718,241.161 198.051,241.828 199.5,242.5C 197.684,243.815 196.017,245.315 194.5,247C 200.833,247.234 207.166,247.068 213.5,246.5C 199.789,249.937 185.789,252.271 171.5,253.5C 168.921,252.772 166.254,252.272 163.5,252C 171.991,248.585 180.325,244.919 188.5,241C 190.81,240.503 193.143,240.337 195.5,240.5 Z"/></g>
<g><path style="opacity:1" fill="#a1865c" d="M 329.5,231.5 C 329.884,233.293 331.05,234.293 333,234.5C 334.3,233.293 335.8,232.626 337.5,232.5C 330.58,238.55 322.58,242.717 313.5,245C 310.985,247.705 309.318,250.872 308.5,254.5C 307.246,252.643 307.246,250.643 308.5,248.5C 307.635,247.417 306.635,247.251 305.5,248C 303.816,255.109 305.483,261.276 310.5,266.5C 310.649,267.552 310.483,268.552 310,269.5C 306.424,264.574 303.924,259.24 302.5,253.5C 302.5,251.167 302.5,248.833 302.5,246.5C 301.5,246.5 300.5,246.5 299.5,246.5C 299.649,245.448 299.483,244.448 299,243.5C 298.667,243.833 298.333,244.167 298,244.5C 297.824,247.882 297.324,251.215 296.5,254.5C 294.118,250.494 293.118,246.161 293.5,241.5C 295.199,241.66 296.866,241.494 298.5,241C 300.181,237.534 301.181,237.7 301.5,241.5C 310.552,241.872 319.052,239.872 327,235.5C 332.715,236.646 332.715,235.979 327,233.5C 321.476,235.773 315.976,236.773 310.5,236.5C 311.833,235.833 313.167,235.167 314.5,234.5C 319.585,233.883 324.585,232.883 329.5,231.5 Z"/></g>
<g><path style="opacity:1" fill="#d1ba95" d="M 350.5,217.5 C 352.167,219.5 353.833,221.5 355.5,223.5C 355.833,224.833 356.167,224.833 356.5,223.5C 358.543,224.579 359.876,226.246 360.5,228.5C 351.261,241.247 341.427,253.58 331,265.5C 324.028,276.447 317.861,287.781 312.5,299.5C 309.772,299.829 307.438,299.163 305.5,297.5C 307.857,297.663 310.19,297.497 312.5,297C 314.356,292.788 316.356,288.621 318.5,284.5C 315.71,281.688 312.71,279.354 309.5,277.5C 309.598,279.553 308.931,281.22 307.5,282.5C 307.5,281.833 307.5,281.167 307.5,280.5C 309.443,276.145 308.61,272.478 305,269.5C 304.79,271.058 304.29,272.391 303.5,273.5C 303.581,270.284 304.081,267.284 305,264.5C 303.916,263.335 303.083,262.002 302.5,260.5C 301.311,259.571 299.978,259.238 298.5,259.5C 298.5,260.5 298.5,261.5 298.5,262.5C 297.082,259.066 298.415,257.399 302.5,257.5C 302.5,256.167 302.5,254.833 302.5,253.5C 303.924,259.24 306.424,264.574 310,269.5C 310.483,268.552 310.649,267.552 310.5,266.5C 311.464,269.074 312.964,271.408 315,273.5C 321.799,263.549 329.299,254.215 337.5,245.5C 337.5,246.167 337.5,246.833 337.5,247.5C 329.601,256.954 321.934,266.621 314.5,276.5C 315.441,278.772 316.774,280.772 318.5,282.5C 327.287,267.916 337.287,254.25 348.5,241.5C 353.998,237.474 354.998,232.474 351.5,226.5C 350.675,225.614 349.675,225.281 348.5,225.5C 348.768,223.901 348.434,222.568 347.5,221.5C 348.026,219.77 349.026,218.436 350.5,217.5 Z"/></g>
<g><path style="opacity:1" fill="#474747" d="M 208.5,250.5 C 208.5,251.833 208.5,253.167 208.5,254.5C 206.396,254.201 204.396,254.534 202.5,255.5C 202.977,256.478 203.643,257.311 204.5,258C 209.386,259.224 214.386,259.891 219.5,260C 213.986,261.809 208.32,262.975 202.5,263.5C 191.529,261.38 180.529,261.046 169.5,262.5C 175.851,253.157 184.351,250.824 195,255.5C 195.833,255.333 196.667,255.167 197.5,255C 196.051,253.883 194.384,253.216 192.5,253C 197.855,252.165 203.189,251.331 208.5,250.5 Z"/></g>
<g><path style="opacity:1" fill="#cdb898" d="M 308.5,254.5 C 308.205,258.405 308.872,262.405 310.5,266.5C 305.483,261.276 303.816,255.109 305.5,248C 306.635,247.251 307.635,247.417 308.5,248.5C 307.246,250.643 307.246,252.643 308.5,254.5 Z"/></g>
<g><path style="opacity:1" fill="#060606" d="M 268.5,274.5 C 267.866,275.947 266.699,276.613 265,276.5C 258.962,274.854 253.129,275.354 247.5,278C 240.16,278.786 232.827,279.619 225.5,280.5C 235.11,282.338 244.443,281.504 253.5,278C 259.225,278.106 264.891,277.939 270.5,277.5C 270.517,279.565 270.85,281.565 271.5,283.5C 271.5,284.167 271.833,284.5 272.5,284.5C 272.5,284.833 272.5,285.167 272.5,285.5C 272.5,285.833 272.5,286.167 272.5,286.5C 275.192,292.566 278.859,297.9 283.5,302.5C 284.703,306.11 285.703,309.777 286.5,313.5C 286.719,314.675 286.386,315.675 285.5,316.5C 276.239,314.724 267.239,315.557 258.5,319C 255.726,321.064 253.893,323.564 253,326.5C 262.503,317.162 273.669,314.495 286.5,318.5C 285.061,319.988 284.395,321.822 284.5,324C 285.031,326.817 285.364,329.65 285.5,332.5C 285.932,333.71 286.599,334.71 287.5,335.5C 287.325,337.621 287.659,339.621 288.5,341.5C 290.994,351.674 286.994,355.674 276.5,353.5C 274.208,351.733 271.542,350.733 268.5,350.5C 268.854,347.579 267.854,345.246 265.5,343.5C 265.694,341.263 265.694,339.097 265.5,337C 263.998,336.417 262.665,335.584 261.5,334.5C 262.5,333.167 263.5,331.833 264.5,330.5C 263.167,329.833 261.833,329.167 260.5,328.5C 264.167,326 267.833,323.5 271.5,321C 267.045,320.966 262.711,321.799 258.5,323.5C 256.614,327.964 254.281,331.964 251.5,335.5C 249.833,335.5 248.167,335.5 246.5,335.5C 244.097,335.607 242.264,334.607 241,332.5C 233.383,320.766 227.216,308.433 222.5,295.5C 221.166,294.348 219.666,293.348 218,292.5C 214.486,293.058 210.986,293.724 207.5,294.5C 211.505,295.438 215.505,295.605 219.5,295C 220.444,297.719 220.777,300.552 220.5,303.5C 221.761,309.506 221.761,315.506 220.5,321.5C 219.759,325.172 218.593,328.839 217,332.5C 214.358,335.029 211.192,336.029 207.5,335.5C 204.75,332.945 201.75,330.612 198.5,328.5C 199.263,327.281 200.263,326.281 201.5,325.5C 200.167,324.167 198.833,322.833 197.5,321.5C 199.167,320.333 200.833,319.167 202.5,318C 201.167,317.667 199.833,317.333 198.5,317C 199.833,316 201.167,315 202.5,314C 199.371,313.883 198.205,312.383 199,309.5C 201.644,307.69 204.144,305.69 206.5,303.5C 205.975,302.808 205.308,302.308 204.5,302C 209.27,297.669 214.103,297.503 219,301.5C 219.507,300.004 219.007,298.837 217.5,298C 211.42,296.653 205.92,297.82 201,301.5C 200.5,301.167 200,300.833 199.5,300.5C 201.113,299.573 202.779,298.739 204.5,298C 201.723,297.949 199.057,297.782 196.5,297.5C 199.5,295.667 202.5,293.833 205.5,292C 203.793,291.805 202.126,291.805 200.5,292C 199.663,290.989 199.33,289.822 199.5,288.5C 202.898,288.82 206.232,288.487 209.5,287.5C 207.257,286.526 204.924,286.192 202.5,286.5C 202.5,285.5 202.5,284.5 202.5,283.5C 203.5,283.5 204.5,283.5 205.5,283.5C 211.218,285.178 216.885,286.678 222.5,288C 215.411,283.636 207.745,281.303 199.5,281C 190.58,283.094 184.247,288.261 180.5,296.5C 179.542,296.953 178.708,297.619 178,298.5C 175.83,291.149 173.663,283.816 171.5,276.5C 170.482,277.193 169.482,277.859 168.5,278.5C 172.261,267.286 179.928,263.452 191.5,267C 196.689,268.798 202.022,269.631 207.5,269.5C 216.533,269.606 225.533,269.106 234.5,268C 241.185,265.884 248.018,264.384 255,263.5C 256.833,263.833 258.667,264.167 260.5,264.5C 261.327,267.485 262.327,270.485 263.5,273.5C 265.045,274.452 266.712,274.785 268.5,274.5 Z"/></g>
<g><path style="opacity:1" fill="#b2b2b2" d="M 208.5,250.5 C 203.189,251.331 197.855,252.165 192.5,253C 194.384,253.216 196.051,253.883 197.5,255C 196.667,255.167 195.833,255.333 195,255.5C 184.351,250.824 175.851,253.157 169.5,262.5C 168.236,264.772 168.402,267.105 170,269.5C 174.152,265.091 179.318,263.091 185.5,263.5C 191.682,264.549 197.682,265.882 203.5,267.5C 202.448,267.351 201.448,267.517 200.5,268C 203.036,268.186 205.369,268.686 207.5,269.5C 202.022,269.631 196.689,268.798 191.5,267C 179.928,263.452 172.261,267.286 168.5,278.5C 167.455,278.313 166.788,277.146 166.5,275C 167.572,270.876 167.738,266.71 167,262.5C 166.329,261.748 165.496,261.414 164.5,261.5C 167.436,259.692 170.436,257.859 173.5,256C 172.906,255.536 172.239,255.369 171.5,255.5C 171.5,254.833 171.5,254.167 171.5,253.5C 185.789,252.271 199.789,249.937 213.5,246.5C 223.869,245.63 233.536,242.63 242.5,237.5C 242.833,237.667 243.167,237.833 243.5,238C 237.463,243.184 230.463,246.351 222.5,247.5C 225.106,248.652 227.773,248.818 230.5,248C 236.463,246.142 242.463,244.809 248.5,244C 241.334,247.168 233.834,249.335 226,250.5C 220.157,247.892 214.324,247.892 208.5,250.5 Z"/></g>
<g><path style="opacity:1" fill="#765634" d="M 303.5,273.5 C 303.5,273.833 303.5,274.167 303.5,274.5C 301.771,275.117 300.271,276.117 299,277.5C 298.148,276.429 297.315,275.429 296.5,274.5C 296.5,273.5 296.5,272.5 296.5,271.5C 296.5,269.5 296.5,267.5 296.5,265.5C 298.048,265.179 298.715,264.179 298.5,262.5C 298.5,261.5 298.5,260.5 298.5,259.5C 299.978,259.238 301.311,259.571 302.5,260.5C 303.083,262.002 303.916,263.335 305,264.5C 304.081,267.284 303.581,270.284 303.5,273.5 Z"/></g>
<g><path style="opacity:1" fill="#352f33" d="M 171.5,255.5 C 172.239,255.369 172.906,255.536 173.5,256C 170.436,257.859 167.436,259.692 164.5,261.5C 162.933,262.681 162.099,264.347 162,266.5C 159.825,267.255 157.659,268.088 155.5,269C 154.748,269.671 154.414,270.504 154.5,271.5C 153.833,271.5 153.5,271.833 153.5,272.5C 151.596,272.738 150.262,273.738 149.5,275.5C 148.35,276.85 147.683,276.684 147.5,275C 147.989,273.862 148.322,272.695 148.5,271.5C 148.932,270.29 149.599,269.29 150.5,268.5C 153.63,266.977 156.963,266.311 160.5,266.5C 160.34,264.801 160.506,263.134 161,261.5C 163.99,258.589 167.49,256.589 171.5,255.5 Z"/></g>
<g><path style="opacity:1" fill="#a5947a" d="M 296.5,265.5 C 296.5,267.5 296.5,269.5 296.5,271.5C 295.732,270.737 295.232,269.737 295,268.5C 292.932,270.396 291.099,272.396 289.5,274.5C 287.668,275.248 286.001,276.248 284.5,277.5C 284.167,276.833 283.833,276.167 283.5,275.5C 285.201,274.789 286.201,273.455 286.5,271.5C 288.121,267.257 289.454,262.924 290.5,258.5C 291.117,258.389 291.617,258.056 292,257.5C 293.506,260.883 295.006,263.549 296.5,265.5 Z"/></g>
<g><path style="opacity:1" fill="#dad6da" d="M 131.5,257.5 C 132.067,259.03 132.733,260.53 133.5,262C 136.637,262.601 139.637,263.601 142.5,265C 143.945,267.757 145.945,269.924 148.5,271.5C 148.322,272.695 147.989,273.862 147.5,275C 147.683,276.684 148.35,276.85 149.5,275.5C 149.427,277.027 150.094,278.027 151.5,278.5C 150.48,282.358 148.147,285.192 144.5,287C 145.448,287.483 146.448,287.649 147.5,287.5C 144.705,290.231 141.372,291.898 137.5,292.5C 137.933,289.834 138.433,287.168 139,284.5C 141.2,285.99 143.034,285.657 144.5,283.5C 143.137,281.326 142.803,279.159 143.5,277C 140.991,275.579 138.657,273.912 136.5,272C 133.662,271.63 130.829,271.797 128,272.5C 125.992,272.693 124.492,272.026 123.5,270.5C 126.082,268.768 128.582,266.768 131,264.5C 131.483,263.552 131.649,262.552 131.5,261.5C 127.835,260.707 127.835,259.374 131.5,257.5 Z"/></g>
<g><path style="opacity:1" fill="#989592" d="M 272.5,263.5 C 272.02,266.685 272.686,269.519 274.5,272C 273.584,272.278 272.918,272.778 272.5,273.5C 271.833,274.833 271.167,276.167 270.5,277.5C 264.891,277.939 259.225,278.106 253.5,278C 244.443,281.504 235.11,282.338 225.5,280.5C 232.827,279.619 240.16,278.786 247.5,278C 253.129,275.354 258.962,274.854 265,276.5C 266.699,276.613 267.866,275.947 268.5,274.5C 272.795,269.475 272.462,264.642 267.5,260C 270.07,259.719 271.736,260.886 272.5,263.5 Z"/></g>
<g><path style="opacity:1" fill="#57361e" d="M 272.5,263.5 C 278.122,265.385 280.789,269.385 280.5,275.5C 281.5,275.5 282.5,275.5 283.5,275.5C 283.833,276.167 284.167,276.833 284.5,277.5C 284.5,278.167 284.5,278.833 284.5,279.5C 283.206,280.29 282.039,281.29 281,282.5C 279.513,279.141 277.346,276.475 274.5,274.5C 273.833,274.167 273.167,273.833 272.5,273.5C 272.918,272.778 273.584,272.278 274.5,272C 272.686,269.519 272.02,266.685 272.5,263.5 Z"/></g>
<g><path style="opacity:1" fill="#e3dcda" d="M 289.5,274.5 C 289.351,275.552 289.517,276.552 290,277.5C 291.843,275.829 294.009,274.829 296.5,274.5C 297.315,275.429 298.148,276.429 299,277.5C 300.271,276.117 301.771,275.117 303.5,274.5C 304.185,276.414 304.685,278.414 305,280.5C 305.77,281.598 306.603,281.598 307.5,280.5C 307.5,281.167 307.5,281.833 307.5,282.5C 304.579,286.683 303.079,291.35 303,296.5C 303.671,297.252 304.504,297.586 305.5,297.5C 307.438,299.163 309.772,299.829 312.5,299.5C 312.737,300.791 312.404,301.791 311.5,302.5C 309.5,302.5 307.5,302.5 305.5,302.5C 304.432,301.566 303.099,301.232 301.5,301.5C 301.741,303.898 301.074,305.898 299.5,307.5C 298.075,309.031 297.409,308.698 297.5,306.5C 298.468,304.393 298.802,302.059 298.5,299.5C 300.085,293.391 301.085,287.058 301.5,280.5C 300.5,280.5 299.5,280.5 298.5,280.5C 298.5,283.167 298.5,285.833 298.5,288.5C 297.532,286.393 297.198,284.059 297.5,281.5C 294.918,281.025 292.918,281.692 291.5,283.5C 289.703,283.065 287.703,283.065 285.5,283.5C 285.768,281.901 285.434,280.568 284.5,279.5C 284.5,278.833 284.5,278.167 284.5,277.5C 286.001,276.248 287.668,275.248 289.5,274.5 Z"/></g>
<g><path style="opacity:1" fill="#5f5660" d="M 153.5,281.5 C 152.386,284.404 150.386,286.404 147.5,287.5C 146.448,287.649 145.448,287.483 144.5,287C 148.147,285.192 150.48,282.358 151.5,278.5C 152.167,278.167 152.833,277.833 153.5,277.5C 155.229,276.883 156.729,275.883 158,274.5C 158.167,274.833 158.333,275.167 158.5,275.5C 156.81,277.519 155.144,279.519 153.5,281.5 Z"/></g>
<g><path style="opacity:1" fill="#663f16" d="M 348.5,241.5 C 337.287,254.25 327.287,267.916 318.5,282.5C 316.774,280.772 315.441,278.772 314.5,276.5C 321.934,266.621 329.601,256.954 337.5,247.5C 339.54,244.842 342.04,242.509 345,240.5C 345.822,237.883 346.322,235.216 346.5,232.5C 348.288,232.215 349.955,232.548 351.5,233.5C 349.924,235.979 348.924,238.646 348.5,241.5 Z"/></g>
<g><path style="opacity:1" fill="#a7a7a7" d="M 205.5,283.5 C 205.083,282.876 204.416,282.543 203.5,282.5C 193.675,284.062 186.342,289.062 181.5,297.5C 181.5,296.833 181.167,296.5 180.5,296.5C 184.247,288.261 190.58,283.094 199.5,281C 207.745,281.303 215.411,283.636 222.5,288C 216.885,286.678 211.218,285.178 205.5,283.5 Z"/></g>
<g><path style="opacity:1" fill="#715c3c" d="M 298.5,299.5 C 298.5,295.833 298.5,292.167 298.5,288.5C 298.5,285.833 298.5,283.167 298.5,280.5C 299.5,280.5 300.5,280.5 301.5,280.5C 301.085,287.058 300.085,293.391 298.5,299.5 Z"/></g>
<g><path style="opacity:1" fill="#888888" d="M 222.5,295.5 C 221.833,298.167 221.167,300.833 220.5,303.5C 220.777,300.552 220.444,297.719 219.5,295C 215.505,295.605 211.505,295.438 207.5,294.5C 210.986,293.724 214.486,293.058 218,292.5C 219.666,293.348 221.166,294.348 222.5,295.5 Z"/></g>
<g><path style="opacity:1" fill="#997b4f" d="M 272.5,273.5 C 273.167,273.833 273.833,274.167 274.5,274.5C 279.91,283.063 282.91,292.396 283.5,302.5C 278.859,297.9 275.192,292.566 272.5,286.5C 273.833,286.167 273.833,285.833 272.5,285.5C 272.5,285.167 272.5,284.833 272.5,284.5C 271.833,284.5 271.5,284.167 271.5,283.5C 270.85,281.565 270.517,279.565 270.5,277.5C 271.167,276.167 271.833,274.833 272.5,273.5 Z"/></g>
<g><path style="opacity:1" fill="#744d23" d="M 305.5,297.5 C 304.504,297.586 303.671,297.252 303,296.5C 303.079,291.35 304.579,286.683 307.5,282.5C 308.931,281.22 309.598,279.553 309.5,277.5C 312.71,279.354 315.71,281.688 318.5,284.5C 316.356,288.621 314.356,292.788 312.5,297C 310.19,297.497 307.857,297.663 305.5,297.5 Z"/></g>
<g><path style="opacity:1" fill="#c6ac89" d="M 274.5,274.5 C 277.346,276.475 279.513,279.141 281,282.5C 282.039,281.29 283.206,280.29 284.5,279.5C 285.434,280.568 285.768,281.901 285.5,283.5C 284.074,281.104 282.74,281.437 281.5,284.5C 285.069,292.11 287.069,300.11 287.5,308.5C 287.784,310.415 287.451,312.081 286.5,313.5C 285.703,309.777 284.703,306.11 283.5,302.5C 282.91,292.396 279.91,283.063 274.5,274.5 Z"/></g>
<g><path style="opacity:1" fill="#5f3a11" d="M 285.5,283.5 C 287.19,284.103 288.69,285.103 290,286.5C 293.867,296.165 295.534,306.165 295,316.5C 292.44,322.932 289.94,329.265 287.5,335.5C 286.599,334.71 285.932,333.71 285.5,332.5C 286.117,332.389 286.617,332.056 287,331.5C 287.497,329.19 287.663,326.857 287.5,324.5C 288.833,319.167 288.833,313.833 287.5,308.5C 287.069,300.11 285.069,292.11 281.5,284.5C 282.74,281.437 284.074,281.104 285.5,283.5 Z"/></g>
<g><path style="opacity:1" fill="#dcdbdb" d="M 164.5,261.5 C 165.496,261.414 166.329,261.748 167,262.5C 167.738,266.71 167.572,270.876 166.5,275C 166.788,277.146 167.455,278.313 168.5,278.5C 169.482,277.859 170.482,277.193 171.5,276.5C 173.663,283.816 175.83,291.149 178,298.5C 178.708,297.619 179.542,296.953 180.5,296.5C 181.167,296.5 181.5,296.833 181.5,297.5C 180.763,299.305 179.763,300.971 178.5,302.5C 180.201,307.263 182.868,311.263 186.5,314.5C 187.505,310.938 189.172,307.771 191.5,305C 193.695,303.627 196.029,303.294 198.5,304C 190.168,306.43 187.001,311.93 189,320.5C 189.883,323.102 191.383,325.269 193.5,327C 192.584,327.278 191.918,327.778 191.5,328.5C 189.513,331.859 189.013,335.525 190,339.5C 192.091,343.671 193.591,348.004 194.5,352.5C 192.516,353.156 190.516,353.822 188.5,354.5C 185.205,351.272 182.372,347.606 180,343.5C 178.981,342.313 177.814,341.313 176.5,340.5C 175.5,341.833 174.5,341.833 173.5,340.5C 171.337,335.486 168.503,330.82 165,326.5C 163.956,324.285 163.29,321.952 163,319.5C 162.311,318.643 161.478,317.977 160.5,317.5C 159.797,313.13 158.964,308.796 158,304.5C 156.56,307.335 154.727,307.835 152.5,306C 153.714,303.649 154.548,301.149 155,298.5C 155.445,292.82 155.945,287.154 156.5,281.5C 155.5,281.5 154.5,281.5 153.5,281.5C 155.144,279.519 156.81,277.519 158.5,275.5C 158.333,275.167 158.167,274.833 158,274.5C 156.729,275.883 155.229,276.883 153.5,277.5C 154.028,276.153 154.195,274.819 154,273.5C 152.67,274.582 151.17,275.249 149.5,275.5C 150.262,273.738 151.596,272.738 153.5,272.5C 154.167,272.5 154.5,272.167 154.5,271.5C 154.414,270.504 154.748,269.671 155.5,269C 157.659,268.088 159.825,267.255 162,266.5C 162.099,264.347 162.933,262.681 164.5,261.5 Z"/></g>
<g><path style="opacity:1" fill="#313131" d="M 172.5,287.5 C 174.245,290.885 174.745,294.552 174,298.5C 171.565,301.934 169.565,305.6 168,309.5C 167.738,305.369 169.072,301.702 172,298.5C 172.499,294.848 172.665,291.182 172.5,287.5 Z"/></g>
<g><path style="opacity:1" fill="#4d4d4d" d="M 205.5,283.5 C 204.5,283.5 203.5,283.5 202.5,283.5C 202.5,284.5 202.5,285.5 202.5,286.5C 204.924,286.192 207.257,286.526 209.5,287.5C 206.232,288.487 202.898,288.82 199.5,288.5C 199.33,289.822 199.663,290.989 200.5,292C 202.126,291.805 203.793,291.805 205.5,292C 202.5,293.833 199.5,295.667 196.5,297.5C 199.057,297.782 201.723,297.949 204.5,298C 202.779,298.739 201.113,299.573 199.5,300.5C 200,300.833 200.5,301.167 201,301.5C 205.92,297.82 211.42,296.653 217.5,298C 219.007,298.837 219.507,300.004 219,301.5C 214.103,297.503 209.27,297.669 204.5,302C 205.308,302.308 205.975,302.808 206.5,303.5C 204.144,305.69 201.644,307.69 199,309.5C 198.205,312.383 199.371,313.883 202.5,314C 201.167,315 199.833,316 198.5,317C 199.833,317.333 201.167,317.667 202.5,318C 200.833,319.167 199.167,320.333 197.5,321.5C 198.833,322.833 200.167,324.167 201.5,325.5C 200.263,326.281 199.263,327.281 198.5,328.5C 201.75,330.612 204.75,332.945 207.5,335.5C 204.61,335.722 201.943,335.055 199.5,333.5C 198.893,333.624 198.56,333.957 198.5,334.5C 196.582,331.974 194.249,329.974 191.5,328.5C 191.918,327.778 192.584,327.278 193.5,327C 191.383,325.269 189.883,323.102 189,320.5C 187.001,311.93 190.168,306.43 198.5,304C 196.029,303.294 193.695,303.627 191.5,305C 189.172,307.771 187.505,310.938 186.5,314.5C 182.868,311.263 180.201,307.263 178.5,302.5C 179.763,300.971 180.763,299.305 181.5,297.5C 186.342,289.062 193.675,284.062 203.5,282.5C 204.416,282.543 205.083,282.876 205.5,283.5 Z"/></g>
<g><path style="opacity:1" fill="#e1e0e1" d="M 138.5,299.5 C 139.833,299.5 141.167,299.5 142.5,299.5C 143.241,302.634 144.241,305.634 145.5,308.5C 144.5,308.5 143.5,308.5 142.5,308.5C 141.215,305.526 139.882,302.526 138.5,299.5 Z"/></g>
<g><path style="opacity:1" fill="#deddde" d="M 222.5,295.5 C 227.216,308.433 233.383,320.766 241,332.5C 242.264,334.607 244.097,335.607 246.5,335.5C 245.079,337.907 243.746,340.407 242.5,343C 243.891,344.02 245.391,344.853 247,345.5C 248.734,349.017 249.401,352.684 249,356.5C 248.282,357.451 247.449,357.617 246.5,357C 243.984,354.317 241.317,351.817 238.5,349.5C 236.625,350.54 235.292,352.04 234.5,354C 237.193,359.08 239.693,364.247 242,369.5C 242.667,371.167 242.667,372.833 242,374.5C 237.833,371.667 234.333,368.167 231.5,364C 229.167,363.667 226.833,363.333 224.5,363C 223.333,362.5 222.5,361.667 222,360.5C 221.51,361.793 221.343,363.127 221.5,364.5C 220.532,362.393 220.198,360.059 220.5,357.5C 220.5,356.167 220.5,354.833 220.5,353.5C 220.999,346.51 221.332,339.51 221.5,332.5C 221.058,328.846 220.724,325.179 220.5,321.5C 221.761,315.506 221.761,309.506 220.5,303.5C 221.167,300.833 221.833,298.167 222.5,295.5 Z"/></g>
<g><path style="opacity:1" fill="#8f6c3e" d="M 367.5,229.5 C 366.36,231.78 365.193,234.114 364,236.5C 351.787,248.862 340.954,262.196 331.5,276.5C 329.376,277.031 327.876,278.365 327,280.5C 323.894,286.265 321.394,292.265 319.5,298.5C 317.305,303.085 315.305,307.751 313.5,312.5C 313.19,311.262 312.69,311.262 312,312.5C 305.05,326.397 299.217,340.73 294.5,355.5C 293.463,354.07 292.796,352.403 292.5,350.5C 294.563,345.15 296.729,339.817 299,334.5C 300.562,324.09 302.728,313.757 305.5,303.5C 308.081,304.824 308.081,306.324 305.5,308C 305.645,308.772 305.978,309.439 306.5,310C 305.044,317.657 303.21,325.157 301,332.5C 305.402,322.793 308.902,312.793 311.5,302.5C 312.404,301.791 312.737,300.791 312.5,299.5C 317.861,287.781 324.028,276.447 331,265.5C 341.427,253.58 351.261,241.247 360.5,228.5C 361.5,228.5 362.5,228.5 363.5,228.5C 363.08,226.326 363.08,224.326 363.5,222.5C 364.795,223.098 366.128,223.598 367.5,224C 366.248,225.828 366.248,227.661 367.5,229.5 Z"/></g>
<g><path style="opacity:1" fill="#847f7a" d="M 287.5,308.5 C 288.833,313.833 288.833,319.167 287.5,324.5C 287.847,321.659 287.513,319.659 286.5,318.5C 273.669,314.495 262.503,317.162 253,326.5C 253.893,323.564 255.726,321.064 258.5,319C 267.239,315.557 276.239,314.724 285.5,316.5C 286.386,315.675 286.719,314.675 286.5,313.5C 287.451,312.081 287.784,310.415 287.5,308.5 Z"/></g>
<g><path style="opacity:1" fill="#9c7f54" d="M 305.5,302.5 C 304.069,302.881 303.236,303.881 303,305.5C 301.263,313.539 299.43,321.539 297.5,329.5C 296.833,329.167 296.167,328.833 295.5,328.5C 297.856,321.717 299.19,314.717 299.5,307.5C 301.074,305.898 301.741,303.898 301.5,301.5C 303.099,301.232 304.432,301.566 305.5,302.5 Z"/></g>
<g><path style="opacity:1" fill="#bd9c69" d="M 305.5,303.5 C 305.5,303.167 305.5,302.833 305.5,302.5C 307.5,302.5 309.5,302.5 311.5,302.5C 308.902,312.793 305.402,322.793 301,332.5C 303.21,325.157 305.044,317.657 306.5,310C 305.978,309.439 305.645,308.772 305.5,308C 308.081,306.324 308.081,304.824 305.5,303.5 Z"/></g>
<g><path style="opacity:1" fill="#8d7760" d="M 331.5,276.5 C 324.274,288.512 320.274,301.512 319.5,315.5C 318.869,317.975 317.869,320.309 316.5,322.5C 317.239,314.47 318.239,306.47 319.5,298.5C 321.394,292.265 323.894,286.265 327,280.5C 327.876,278.365 329.376,277.031 331.5,276.5 Z"/></g>
<g><path style="opacity:1" fill="#d2c4aa" d="M 287.5,324.5 C 287.663,326.857 287.497,329.19 287,331.5C 286.617,332.056 286.117,332.389 285.5,332.5C 285.364,329.65 285.031,326.817 284.5,324C 284.395,321.822 285.061,319.988 286.5,318.5C 287.513,319.659 287.847,321.659 287.5,324.5 Z"/></g>
<g><path style="opacity:1" fill="#494749" d="M 276.5,353.5 C 272.821,353.276 269.154,352.942 265.5,352.5C 262.54,346.595 259.04,340.929 255,335.5C 253.708,336.791 252.542,336.791 251.5,335.5C 254.281,331.964 256.614,327.964 258.5,323.5C 262.711,321.799 267.045,320.966 271.5,321C 267.833,323.5 264.167,326 260.5,328.5C 261.833,329.167 263.167,329.833 264.5,330.5C 263.5,331.833 262.5,333.167 261.5,334.5C 262.665,335.584 263.998,336.417 265.5,337C 265.694,339.097 265.694,341.263 265.5,343.5C 267.854,345.246 268.854,347.579 268.5,350.5C 271.542,350.733 274.208,351.733 276.5,353.5 Z"/></g>
<g><path style="opacity:1" fill="#0a0a0a" d="M 191.5,328.5 C 194.249,329.974 196.582,331.974 198.5,334.5C 198.953,335.458 199.619,336.292 200.5,337C 206.015,339.301 211.348,338.968 216.5,336C 218.041,334.421 219.208,332.587 220,330.5C 220.278,331.416 220.778,332.082 221.5,332.5C 221.332,339.51 220.999,346.51 220.5,353.5C 215.55,362.69 208.217,365.023 198.5,360.5C 196.659,358.151 195.326,355.485 194.5,352.5C 193.591,348.004 192.091,343.671 190,339.5C 189.013,335.525 189.513,331.859 191.5,328.5 Z"/></g>
<g><path style="opacity:1" fill="#baaa96" d="M 319.5,315.5 C 319.5,321.5 319.5,327.5 319.5,333.5C 318.676,337.312 318.176,341.312 318,345.5C 317.667,344.833 317.333,344.167 317,343.5C 316.5,336.508 316.334,329.508 316.5,322.5C 317.869,320.309 318.869,317.975 319.5,315.5 Z"/></g>
<g><path style="opacity:1" fill="#ded2b8" d="M 291.5,283.5 C 294.724,290.839 296.724,298.506 297.5,306.5C 297.409,308.698 298.075,309.031 299.5,307.5C 299.19,314.717 297.856,321.717 295.5,328.5C 293.734,332.285 292.234,336.285 291,340.5C 290.329,341.252 289.496,341.586 288.5,341.5C 287.659,339.621 287.325,337.621 287.5,335.5C 289.94,329.265 292.44,322.932 295,316.5C 295.534,306.165 293.867,296.165 290,286.5C 288.69,285.103 287.19,284.103 285.5,283.5C 287.703,283.065 289.703,283.065 291.5,283.5 Z"/></g>
<g><path style="opacity:1" fill="#5b3610" d="M 305.5,302.5 C 305.5,302.833 305.5,303.167 305.5,303.5C 302.728,313.757 300.562,324.09 299,334.5C 296.729,339.817 294.563,345.15 292.5,350.5C 291.833,350.5 291.5,350.167 291.5,349.5C 292.889,342.665 294.889,335.998 297.5,329.5C 299.43,321.539 301.263,313.539 303,305.5C 303.236,303.881 304.069,302.881 305.5,302.5 Z"/></g>
<g><path style="opacity:1" fill="#9b9b9b" d="M 220.5,321.5 C 220.724,325.179 221.058,328.846 221.5,332.5C 220.778,332.082 220.278,331.416 220,330.5C 219.208,332.587 218.041,334.421 216.5,336C 211.348,338.968 206.015,339.301 200.5,337C 199.619,336.292 198.953,335.458 198.5,334.5C 198.56,333.957 198.893,333.624 199.5,333.5C 201.943,335.055 204.61,335.722 207.5,335.5C 211.192,336.029 214.358,335.029 217,332.5C 218.593,328.839 219.759,325.172 220.5,321.5 Z"/></g>
<g><path style="opacity:1" fill="#ddccad" d="M 313.5,312.5 C 308.47,328.999 303.97,345.666 300,362.5C 299.148,363.571 298.315,364.571 297.5,365.5C 296.21,362.358 295.21,359.025 294.5,355.5C 299.217,340.73 305.05,326.397 312,312.5C 312.69,311.262 313.19,311.262 313.5,312.5 Z"/></g>
<g><path style="opacity:1" fill="#7a5a31" d="M 319.5,298.5 C 318.239,306.47 317.239,314.47 316.5,322.5C 316.334,329.508 316.5,336.508 317,343.5C 317.333,344.167 317.667,344.833 318,345.5C 318.176,341.312 318.676,337.312 319.5,333.5C 320.383,338.132 321.05,342.798 321.5,347.5C 322.64,353.313 324.307,358.979 326.5,364.5C 323.316,365.323 319.983,365.99 316.5,366.5C 316.923,365.735 317.257,364.902 317.5,364C 314.327,353.074 312.827,341.907 313,330.5C 312.969,341.858 312.803,353.191 312.5,364.5C 310.093,357.73 308.926,350.73 309,343.5C 305.856,350.783 304.023,358.45 303.5,366.5C 301.5,366.5 299.5,366.5 297.5,366.5C 297.5,366.167 297.5,365.833 297.5,365.5C 298.315,364.571 299.148,363.571 300,362.5C 303.97,345.666 308.47,328.999 313.5,312.5C 315.305,307.751 317.305,303.085 319.5,298.5 Z"/></g>
<g><path style="opacity:1" fill="#7c6c5b" d="M 295.5,328.5 C 296.167,328.833 296.833,329.167 297.5,329.5C 294.889,335.998 292.889,342.665 291.5,349.5C 290.31,351.869 288.643,353.869 286.5,355.5C 283.167,354.833 279.833,354.167 276.5,353.5C 286.994,355.674 290.994,351.674 288.5,341.5C 289.496,341.586 290.329,341.252 291,340.5C 292.234,336.285 293.734,332.285 295.5,328.5 Z"/></g>
<g><path style="opacity:1" fill="#040404" d="M 291.5,349.5 C 291.5,350.167 291.833,350.5 292.5,350.5C 292.796,352.403 293.463,354.07 294.5,355.5C 295.21,359.025 296.21,362.358 297.5,365.5C 297.5,365.833 297.5,366.167 297.5,366.5C 297.5,367.167 297.5,367.833 297.5,368.5C 298.833,373.5 298.833,378.5 297.5,383.5C 296.158,384.793 294.491,385.626 292.5,386C 288.179,386.499 283.846,386.666 279.5,386.5C 277.782,385.776 275.948,385.109 274,384.5C 270.875,376.421 269.875,368.087 271,359.5C 272.518,358.837 273.685,357.837 274.5,356.5C 278.566,356.693 282.566,356.36 286.5,355.5C 288.643,353.869 290.31,351.869 291.5,349.5 Z"/></g>
<g><path style="opacity:1" fill="#d7d6d6" d="M 265.5,352.5 C 269.154,352.942 272.821,353.276 276.5,353.5C 279.833,354.167 283.167,354.833 286.5,355.5C 282.566,356.36 278.566,356.693 274.5,356.5C 271.838,355.501 269.172,354.501 266.5,353.5C 265.833,353.5 265.5,353.167 265.5,352.5 Z"/></g>
<g><path style="opacity:1" fill="#9f8c73" d="M 321.5,347.5 C 324.56,353.952 327.893,360.285 331.5,366.5C 330.18,365.058 328.514,364.392 326.5,364.5C 324.307,358.979 322.64,353.313 321.5,347.5 Z"/></g>
<g><path style="opacity:1" fill="#d9c59f" d="M 316.5,366.5 C 312.167,366.5 307.833,366.5 303.5,366.5C 304.023,358.45 305.856,350.783 309,343.5C 308.926,350.73 310.093,357.73 312.5,364.5C 312.803,353.191 312.969,341.858 313,330.5C 312.827,341.907 314.327,353.074 317.5,364C 317.257,364.902 316.923,365.735 316.5,366.5 Z"/></g>
<g><path style="opacity:1" fill="#767677" d="M 220.5,353.5 C 220.5,354.833 220.5,356.167 220.5,357.5C 216.076,363.085 210.41,365.085 203.5,363.5C 202.287,363.747 201.62,364.414 201.5,365.5C 200.263,364.035 199.263,362.368 198.5,360.5C 208.217,365.023 215.55,362.69 220.5,353.5 Z"/></g>
<g><path style="opacity:1" fill="#0b090a" d="M 220.5,357.5 C 220.198,360.059 220.532,362.393 221.5,364.5C 221.5,365.167 221.5,365.833 221.5,366.5C 221.523,370.542 222.689,374.208 225,377.5C 225.497,380.146 225.664,382.813 225.5,385.5C 221.979,385.83 218.979,387.33 216.5,390C 215.552,390.483 214.552,390.649 213.5,390.5C 211.412,385.999 208.579,381.999 205,378.5C 204.887,373.843 203.72,369.51 201.5,365.5C 201.62,364.414 202.287,363.747 203.5,363.5C 210.41,365.085 216.076,363.085 220.5,357.5 Z"/></g>
<g><path style="opacity:1" fill="#434342" d="M 266.5,353.5 C 269.172,354.501 271.838,355.501 274.5,356.5C 273.685,357.837 272.518,358.837 271,359.5C 269.875,368.087 270.875,376.421 274,384.5C 275.948,385.109 277.782,385.776 279.5,386.5C 273.982,385.232 268.315,384.232 262.5,383.5C 260.97,383.36 259.97,382.693 259.5,381.5C 263.119,382.244 266.785,382.577 270.5,382.5C 268.959,377.636 268.292,372.636 268.5,367.5C 268.672,366.508 268.338,365.842 267.5,365.5C 267.495,361.466 267.162,357.466 266.5,353.5 Z"/></g>
<g><path style="opacity:1" fill="#e3e4e0" d="M 267.5,365.5 C 268.338,365.842 268.672,366.508 268.5,367.5C 265.514,372.13 262.514,376.797 259.5,381.5C 255.837,381.829 253.837,383.829 253.5,387.5C 252.387,386.054 252.22,384.387 253,382.5C 254.667,381.5 256.333,380.5 258,379.5C 260.929,374.631 264.096,369.965 267.5,365.5 Z"/></g>
<g><path style="opacity:1" fill="#707070" d="M 221.5,366.5 C 222.532,368.378 223.866,370.045 225.5,371.5C 224.957,371.56 224.624,371.893 224.5,372.5C 227.257,376.809 228.091,381.475 227,386.5C 222.241,387.448 218.407,389.781 215.5,393.5C 214.599,392.71 213.932,391.71 213.5,390.5C 214.552,390.649 215.552,390.483 216.5,390C 218.979,387.33 221.979,385.83 225.5,385.5C 225.664,382.813 225.497,380.146 225,377.5C 222.689,374.208 221.523,370.542 221.5,366.5 Z"/></g>
<g><path style="opacity:1" fill="#54c0bf" d="M 305.5,368.5 C 310.363,368.181 315.03,368.514 319.5,369.5C 320.773,373.597 321.439,377.93 321.5,382.5C 317.098,382.772 312.765,382.439 308.5,381.5C 305.583,378.732 306.25,377.232 310.5,377C 307.71,376.439 305.377,375.106 303.5,373C 304.328,372.085 305.328,371.419 306.5,371C 305.748,370.329 305.414,369.496 305.5,368.5 Z"/></g>
<g><path style="opacity:1" fill="#36615a" d="M 297.5,366.5 C 299.5,366.5 301.5,366.5 303.5,366.5C 307.833,366.5 312.167,366.5 316.5,366.5C 319.625,367.479 322.958,367.813 326.5,367.5C 326.343,368.873 326.51,370.207 327,371.5C 327.667,372.833 328.333,372.833 329,371.5C 330.113,372.76 330.28,373.927 329.5,375C 331.122,376.295 332.455,377.795 333.5,379.5C 333.392,380.442 333.059,381.275 332.5,382C 329.883,382.822 327.216,383.322 324.5,383.5C 325.412,382.262 325.579,380.928 325,379.5C 323.4,376.666 322.234,373.666 321.5,370.5C 320.817,370.137 320.15,369.804 319.5,369.5C 315.03,368.514 310.363,368.181 305.5,368.5C 302.833,368.5 300.167,368.5 297.5,368.5C 297.5,367.833 297.5,367.167 297.5,366.5 Z"/></g>
<g><path style="opacity:1" fill="#3a7571" d="M 268.5,367.5 C 268.292,372.636 268.959,377.636 270.5,382.5C 266.785,382.577 263.119,382.244 259.5,381.5C 262.514,376.797 265.514,372.13 268.5,367.5 Z"/></g>
<g><path style="opacity:1" fill="#0b0a0b" d="M 225.5,371.5 C 230.812,381.479 238.479,389.145 248.5,394.5C 250.616,396.4 251.949,398.733 252.5,401.5C 252.987,402.473 253.487,403.473 254,404.5C 254.17,398.472 254.67,392.472 255.5,386.5C 256.665,394.479 256.832,402.479 256,410.5C 253.333,417.491 248.833,419.824 242.5,417.5C 235.149,415.974 229.649,411.974 226,405.5C 223,403.167 220,400.833 217,398.5C 215.991,396.975 215.491,395.308 215.5,393.5C 218.407,389.781 222.241,387.448 227,386.5C 228.091,381.475 227.257,376.809 224.5,372.5C 224.624,371.893 224.957,371.56 225.5,371.5 Z"/></g>
<g><path style="opacity:1" fill="#2f3e36" d="M 326.5,364.5 C 328.514,364.392 330.18,365.058 331.5,366.5C 334.497,371.159 337.497,375.825 340.5,380.5C 340.5,381.5 340.5,382.5 340.5,383.5C 333.209,384.392 325.876,384.726 318.5,384.5C 318.5,384.167 318.5,383.833 318.5,383.5C 320.5,383.5 322.5,383.5 324.5,383.5C 327.216,383.322 329.883,382.822 332.5,382C 333.059,381.275 333.392,380.442 333.5,379.5C 332.455,377.795 331.122,376.295 329.5,375C 330.28,373.927 330.113,372.76 329,371.5C 328.333,372.833 327.667,372.833 327,371.5C 326.51,370.207 326.343,368.873 326.5,367.5C 322.958,367.813 319.625,367.479 316.5,366.5C 319.983,365.99 323.316,365.323 326.5,364.5 Z"/></g>
<g><path style="opacity:1" fill="#4f9894" d="M 297.5,368.5 C 300.167,368.5 302.833,368.5 305.5,368.5C 305.414,369.496 305.748,370.329 306.5,371C 305.328,371.419 304.328,372.085 303.5,373C 305.377,375.106 307.71,376.439 310.5,377C 306.25,377.232 305.583,378.732 308.5,381.5C 312.765,382.439 317.098,382.772 321.5,382.5C 321.439,377.93 320.773,373.597 319.5,369.5C 320.15,369.804 320.817,370.137 321.5,370.5C 322.234,373.666 323.4,376.666 325,379.5C 325.579,380.928 325.412,382.262 324.5,383.5C 322.5,383.5 320.5,383.5 318.5,383.5C 311.29,383.592 304.29,383.592 297.5,383.5C 298.833,378.5 298.833,373.5 297.5,368.5 Z"/></g>
<g><path style="opacity:1" fill="#978063" d="M 340.5,380.5 C 342.679,381.103 344.846,381.77 347,382.5C 347.5,390.827 347.666,399.16 347.5,407.5C 346.508,400.352 346.175,393.019 346.5,385.5C 339.891,386.659 333.224,387.326 326.5,387.5C 319.913,385.539 312.913,384.872 305.5,385.5C 309.634,384.515 313.968,384.182 318.5,384.5C 325.876,384.726 333.209,384.392 340.5,383.5C 340.5,382.5 340.5,381.5 340.5,380.5 Z"/></g>
<g><path style="opacity:1" fill="#060505" d="M 196.5,387.5 C 212.787,394.756 218.287,407.089 213,424.5C 211.006,429.519 207.839,433.519 203.5,436.5C 202.833,436.5 202.5,436.833 202.5,437.5C 198.516,438.488 194.516,439.488 190.5,440.5C 188.167,440.5 185.833,440.5 183.5,440.5C 183.714,438.856 183.38,437.356 182.5,436C 179.691,434.259 176.691,433.092 173.5,432.5C 173.78,429.612 172.447,428.112 169.5,428C 170.5,427 171.5,426 172.5,425C 168.403,423.676 167.736,421.51 170.5,418.5C 168.841,417.002 167.175,415.502 165.5,414C 165.978,411.774 166.645,409.608 167.5,407.5C 169.683,409.571 172.016,411.071 174.5,412C 173.376,408.578 171.209,406.078 168,404.5C 167.517,403.552 167.351,402.552 167.5,401.5C 171.642,403.12 175.142,405.786 178,409.5C 177.303,406.246 175.803,403.246 173.5,400.5C 175.335,399.572 175.668,398.406 174.5,397C 175.77,396.1 176.77,394.934 177.5,393.5C 180.735,394.733 183.735,396.399 186.5,398.5C 186.833,398.333 187.167,398.167 187.5,398C 185.5,396 183.5,394 181.5,392C 184.187,392.709 186.854,393.375 189.5,394C 187.5,391.667 185.5,389.333 183.5,387C 187.859,386.466 192.192,386.632 196.5,387.5 Z"/></g>
<g><path style="opacity:1" fill="#e9dcbb" d="M 305.5,385.5 C 312.913,384.872 319.913,385.539 326.5,387.5C 324.565,388.15 322.565,388.483 320.5,388.5C 313.5,388.5 306.5,388.5 299.5,388.5C 299.5,387.5 299.5,386.5 299.5,385.5C 301.5,385.5 303.5,385.5 305.5,385.5 Z"/></g>
<g><path style="opacity:1" fill="#060505" d="M 302.5,396.5 C 300.833,396.5 299.167,396.5 297.5,396.5C 297.502,402.523 297.835,408.523 298.5,414.5C 296.833,414.5 295.167,414.5 293.5,414.5C 293.5,416.833 293.5,419.167 293.5,421.5C 290.486,421.852 287.986,423.185 286,425.5C 285.098,425.257 284.265,424.923 283.5,424.5C 276.073,422.809 268.406,421.475 260.5,420.5C 262.235,409.958 262.901,399.292 262.5,388.5C 266.514,388.334 270.514,388.501 274.5,389C 280.077,393.166 279.577,395.666 273,396.5C 272.333,401.833 272.333,407.167 273,412.5C 274.401,414.192 276.234,414.859 278.5,414.5C 279.5,414.5 280.5,414.5 281.5,414.5C 281.745,408.916 281.078,403.583 279.5,398.5C 279.678,397.305 280.011,396.138 280.5,395C 278.987,393.121 278.321,390.954 278.5,388.5C 285.337,389.22 291.837,388.22 298,385.5C 298.49,386.793 298.657,388.127 298.5,389.5C 300.5,389.5 302.5,389.5 304.5,389.5C 304.261,391.467 304.594,393.301 305.5,395C 304.263,395.232 303.263,395.732 302.5,396.5 Z"/></g>
<g><path style="opacity:1" fill="#100f0e" d="M 347.5,407.5 C 347.903,411.228 349.57,414.228 352.5,416.5C 352.586,417.496 352.252,418.329 351.5,419C 347.309,420.801 342.975,421.467 338.5,421C 339.5,420.667 340.5,420.333 341.5,420C 336.177,419.501 330.844,419.334 325.5,419.5C 325.259,417.114 325.925,415.114 327.5,413.5C 328.833,407.833 328.833,402.167 327.5,396.5C 324.833,396.5 322.167,396.5 319.5,396.5C 319.389,395.883 319.056,395.383 318.5,395C 320.338,392.917 321.005,390.75 320.5,388.5C 322.565,388.483 324.565,388.15 326.5,387.5C 333.224,387.326 339.891,386.659 346.5,385.5C 346.175,393.019 346.508,400.352 347.5,407.5 Z"/></g>
<g><path style="opacity:1" fill="#817f78" d="M 259.5,381.5 C 259.97,382.693 260.97,383.36 262.5,383.5C 268.315,384.232 273.982,385.232 279.5,386.5C 283.846,386.666 288.179,386.499 292.5,386C 294.491,385.626 296.158,384.793 297.5,383.5C 304.29,383.592 311.29,383.592 318.5,383.5C 318.5,383.833 318.5,384.167 318.5,384.5C 313.968,384.182 309.634,384.515 305.5,385.5C 303.5,385.5 301.5,385.5 299.5,385.5C 299.5,386.5 299.5,387.5 299.5,388.5C 306.5,388.5 313.5,388.5 320.5,388.5C 321.005,390.75 320.338,392.917 318.5,395C 319.056,395.383 319.389,395.883 319.5,396.5C 318.5,396.5 317.5,396.5 316.5,396.5C 311.833,396.5 307.167,396.5 302.5,396.5C 303.263,395.732 304.263,395.232 305.5,395C 304.594,393.301 304.261,391.467 304.5,389.5C 302.5,389.5 300.5,389.5 298.5,389.5C 298.657,388.127 298.49,386.793 298,385.5C 291.837,388.22 285.337,389.22 278.5,388.5C 272.559,387.587 266.559,387.254 260.5,387.5C 260.666,395.84 260.5,404.173 260,412.5C 259.484,415.034 258.317,417.2 256.5,419C 257.745,419.791 259.078,420.291 260.5,420.5C 260.443,421.609 260.11,422.609 259.5,423.5C 254.417,423.436 249.75,422.103 245.5,419.5C 244.817,419.863 244.15,420.196 243.5,420.5C 243.443,419.391 243.11,418.391 242.5,417.5C 248.833,419.824 253.333,417.491 256,410.5C 256.832,402.479 256.665,394.479 255.5,386.5C 254.67,392.472 254.17,398.472 254,404.5C 253.487,403.473 252.987,402.473 252.5,401.5C 253.486,397.03 253.819,392.363 253.5,387.5C 253.837,383.829 255.837,381.829 259.5,381.5 Z"/></g>
<g><path style="opacity:1" fill="#444243" d="M 196.5,387.5 C 192.192,386.632 187.859,386.466 183.5,387C 185.5,389.333 187.5,391.667 189.5,394C 186.854,393.375 184.187,392.709 181.5,392C 183.5,394 185.5,396 187.5,398C 187.167,398.167 186.833,398.333 186.5,398.5C 183.735,396.399 180.735,394.733 177.5,393.5C 176.77,394.934 175.77,396.1 174.5,397C 175.668,398.406 175.335,399.572 173.5,400.5C 175.803,403.246 177.303,406.246 178,409.5C 175.142,405.786 171.642,403.12 167.5,401.5C 167.351,402.552 167.517,403.552 168,404.5C 171.209,406.078 173.376,408.578 174.5,412C 172.016,411.071 169.683,409.571 167.5,407.5C 166.645,409.608 165.978,411.774 165.5,414C 167.175,415.502 168.841,417.002 170.5,418.5C 167.736,421.51 168.403,423.676 172.5,425C 171.5,426 170.5,427 169.5,428C 172.447,428.112 173.78,429.612 173.5,432.5C 176.691,433.092 179.691,434.259 182.5,436C 183.38,437.356 183.714,438.856 183.5,440.5C 185.833,440.5 188.167,440.5 190.5,440.5C 187.696,441.638 184.696,441.805 181.5,441C 177.873,439.677 174.207,438.511 170.5,437.5C 158.251,427.703 155.085,415.369 161,400.5C 169.552,386.966 181.386,382.632 196.5,387.5 Z"/></g>
<g><path style="opacity:1" fill="#6d4416" d="M 279.5,398.5 C 281.078,403.583 281.745,408.916 281.5,414.5C 280.5,414.5 279.5,414.5 278.5,414.5C 277.469,413.751 276.302,413.085 275,412.5C 274.501,407.511 274.334,402.511 274.5,397.5C 276.292,397.366 277.958,397.699 279.5,398.5 Z"/></g>
<g><path style="opacity:1" fill="#4f4337" d="M 327.5,396.5 C 328.833,402.167 328.833,407.833 327.5,413.5C 324.908,407.907 324.908,402.241 327.5,396.5 Z"/></g>
<g><path style="opacity:1" fill="#ccab6d" d="M 316.5,396.5 C 317.5,396.5 318.5,396.5 319.5,396.5C 322.167,396.5 324.833,396.5 327.5,396.5C 324.908,402.241 324.908,407.907 327.5,413.5C 324.833,413.833 322.167,414.167 319.5,414.5C 318.791,413.596 317.791,413.263 316.5,413.5C 318.45,407.646 318.45,401.979 316.5,396.5 Z"/></g>
<g><path style="opacity:1" fill="#eedcaa" d="M 302.5,396.5 C 307.167,396.5 311.833,396.5 316.5,396.5C 318.45,401.979 318.45,407.646 316.5,413.5C 317.791,413.263 318.791,413.596 319.5,414.5C 318.833,414.5 318.167,414.5 317.5,414.5C 311.167,414.5 304.833,414.5 298.5,414.5C 297.835,408.523 297.502,402.523 297.5,396.5C 299.167,396.5 300.833,396.5 302.5,396.5 Z"/></g>
<g><path style="opacity:1" fill="#3d3833" d="M 278.5,388.5 C 278.321,390.954 278.987,393.121 280.5,395C 280.011,396.138 279.678,397.305 279.5,398.5C 277.958,397.699 276.292,397.366 274.5,397.5C 274.334,402.511 274.501,407.511 275,412.5C 276.302,413.085 277.469,413.751 278.5,414.5C 276.234,414.859 274.401,414.192 273,412.5C 272.333,407.167 272.333,401.833 273,396.5C 279.577,395.666 280.077,393.166 274.5,389C 270.514,388.501 266.514,388.334 262.5,388.5C 262.901,399.292 262.235,409.958 260.5,420.5C 259.078,420.291 257.745,419.791 256.5,419C 258.317,417.2 259.484,415.034 260,412.5C 260.5,404.173 260.666,395.84 260.5,387.5C 266.559,387.254 272.559,387.587 278.5,388.5 Z"/></g>
<g><path style="opacity:1" fill="#898582" d="M 298.5,414.5 C 304.833,414.5 311.167,414.5 317.5,414.5C 317.082,415.222 316.416,415.722 315.5,416C 316.337,417.011 316.67,418.178 316.5,419.5C 314.692,419.509 313.025,419.009 311.5,418C 310.167,417.333 310.167,416.667 311.5,416C 307.848,415.501 304.182,415.335 300.5,415.5C 298.883,416.038 297.216,416.371 295.5,416.5C 295.66,418.199 295.494,419.866 295,421.5C 292.571,422.894 290.404,424.56 288.5,426.5C 286.219,426.923 284.552,426.256 283.5,424.5C 284.265,424.923 285.098,425.257 286,425.5C 287.986,423.185 290.486,421.852 293.5,421.5C 293.5,419.167 293.5,416.833 293.5,414.5C 295.167,414.5 296.833,414.5 298.5,414.5 Z"/></g>
<g><path style="opacity:1" fill="#0c0a0a" d="M 300.5,415.5 C 301.39,418.948 303.057,421.948 305.5,424.5C 315.524,424.666 325.524,424.332 335.5,423.5C 342.29,423.21 348.623,421.543 354.5,418.5C 354.833,418.5 355.167,418.5 355.5,418.5C 356.292,419.967 356.292,421.3 355.5,422.5C 352.839,423.332 350.172,424.166 347.5,425C 334.193,426.11 320.859,426.777 307.5,427C 323.892,429.336 340.226,428.503 356.5,424.5C 356.5,426.167 356.5,427.833 356.5,429.5C 355.319,431.067 353.653,431.901 351.5,432C 341.197,433.132 330.863,433.632 320.5,433.5C 319.448,433.351 318.448,433.517 317.5,434C 319.905,435.991 320.572,438.324 319.5,441C 310.833,441.667 302.167,441.667 293.5,441C 292.473,440.487 291.473,439.987 290.5,439.5C 288.782,438.776 286.948,438.109 285,437.5C 282.062,432.191 283.229,428.524 288.5,426.5C 290.404,424.56 292.571,422.894 295,421.5C 295.494,419.866 295.66,418.199 295.5,416.5C 297.216,416.371 298.883,416.038 300.5,415.5 Z"/></g>
<g><path style="opacity:1" fill="#a59b8a" d="M 335.5,423.5 C 325.524,424.332 315.524,424.666 305.5,424.5C 306.058,423.21 307.058,422.377 308.5,422C 308.167,421.667 307.833,421.333 307.5,421C 316.167,420.333 324.833,420.333 333.5,421C 330.167,421.333 326.833,421.667 323.5,422C 327.688,422.176 331.688,422.676 335.5,423.5 Z"/></g>
<g><path style="opacity:1" fill="#5b554f" d="M 327.5,413.5 C 325.925,415.114 325.259,417.114 325.5,419.5C 330.844,419.334 336.177,419.501 341.5,420C 340.5,420.333 339.5,420.667 338.5,421C 342.975,421.467 347.309,420.801 351.5,419C 352.252,418.329 352.586,417.496 352.5,416.5C 353.5,416.833 354.167,417.5 354.5,418.5C 348.623,421.543 342.29,423.21 335.5,423.5C 331.688,422.676 327.688,422.176 323.5,422C 326.833,421.667 330.167,421.333 333.5,421C 324.833,420.333 316.167,420.333 307.5,421C 307.833,421.333 308.167,421.667 308.5,422C 307.058,422.377 306.058,423.21 305.5,424.5C 303.057,421.948 301.39,418.948 300.5,415.5C 304.182,415.335 307.848,415.501 311.5,416C 310.167,416.667 310.167,417.333 311.5,418C 313.025,419.009 314.692,419.509 316.5,419.5C 316.67,418.178 316.337,417.011 315.5,416C 316.416,415.722 317.082,415.222 317.5,414.5C 318.167,414.5 318.833,414.5 319.5,414.5C 322.167,414.167 324.833,413.833 327.5,413.5 Z"/></g>
<g><path style="opacity:1" fill="#0f0c0b" d="M 259.5,423.5 C 267.26,423.195 274.927,423.862 282.5,425.5C 273.838,426.588 265.171,426.588 256.5,425.5C 252.887,424.514 249.221,423.681 245.5,423C 244.244,422.583 243.577,421.75 243.5,420.5C 244.15,420.196 244.817,419.863 245.5,419.5C 249.75,422.103 254.417,423.436 259.5,423.5 Z"/></g>
<g><path style="opacity:1" fill="#131211" d="M 244.5,430.5 C 243.833,430.5 243.5,430.167 243.5,429.5C 243.5,427.833 243.5,426.167 243.5,424.5C 244.5,424.5 245.5,424.5 246.5,424.5C 246.975,427.082 246.308,429.082 244.5,430.5 Z"/></g>
<g><path style="opacity:1" fill="#47423d" d="M 355.5,418.5 C 356.117,418.611 356.617,418.944 357,419.5C 357.808,423.027 357.641,426.36 356.5,429.5C 356.5,427.833 356.5,426.167 356.5,424.5C 340.226,428.503 323.892,429.336 307.5,427C 320.859,426.777 334.193,426.11 347.5,425C 350.172,424.166 352.839,423.332 355.5,422.5C 356.292,421.3 356.292,419.967 355.5,418.5 Z"/></g>
<g><path style="opacity:1" fill="#050404" d="M 270.5,433.5 C 268.167,433.5 265.833,433.5 263.5,433.5C 262.081,432.549 260.415,432.216 258.5,432.5C 257.602,431.842 256.602,431.176 255.5,430.5C 255.833,429.833 256.167,429.167 256.5,428.5C 265.159,427.462 273.826,427.462 282.5,428.5C 282.5,430.167 282.5,431.833 282.5,433.5C 278.5,433.5 274.5,433.5 270.5,433.5 Z"/></g>
<g><path style="opacity:1" fill="#373534" d="M 260.5,420.5 C 268.406,421.475 276.073,422.809 283.5,424.5C 284.552,426.256 286.219,426.923 288.5,426.5C 283.229,428.524 282.062,432.191 285,437.5C 286.948,438.109 288.782,438.776 290.5,439.5C 287.215,439.79 284.215,439.123 281.5,437.5C 281.5,436.5 281.5,435.5 281.5,434.5C 277.629,434.815 273.962,434.482 270.5,433.5C 274.5,433.5 278.5,433.5 282.5,433.5C 282.5,431.833 282.5,430.167 282.5,428.5C 273.826,427.462 265.159,427.462 256.5,428.5C 256.167,429.167 255.833,429.833 255.5,430.5C 256.602,431.176 257.602,431.842 258.5,432.5C 254.27,433.169 252.437,431.502 253,427.5C 254.302,426.915 255.469,426.249 256.5,425.5C 265.171,426.588 273.838,426.588 282.5,425.5C 274.927,423.862 267.26,423.195 259.5,423.5C 260.11,422.609 260.443,421.609 260.5,420.5 Z"/></g>
<g><path style="opacity:1" fill="#898682" d="M 243.5,420.5 C 243.577,421.75 244.244,422.583 245.5,423C 249.221,423.681 252.887,424.514 256.5,425.5C 255.469,426.249 254.302,426.915 253,427.5C 252.437,431.502 254.27,433.169 258.5,432.5C 260.415,432.216 262.081,432.549 263.5,433.5C 256.815,433.872 250.481,432.872 244.5,430.5C 246.308,429.082 246.975,427.082 246.5,424.5C 245.5,424.5 244.5,424.5 243.5,424.5C 243.5,426.167 243.5,427.833 243.5,429.5C 242.167,426.5 242.167,423.5 243.5,420.5 Z"/></g>
<g><path style="opacity:1" fill="#e0dfe0" d="M 320.5,433.5 C 320.389,434.117 320.056,434.617 319.5,435C 321.037,436.11 321.703,437.61 321.5,439.5C 334.255,439.059 346.922,439.892 359.5,442C 361.957,443.154 361.957,444.488 359.5,446C 355.531,446.853 351.531,447.519 347.5,448C 279.187,452.178 210.853,452.511 142.5,449C 133.685,448.812 125.018,447.645 116.5,445.5C 115.167,444.5 115.167,443.5 116.5,442.5C 126.136,440.116 135.803,439.116 145.5,439.5C 153.818,438.77 162.151,438.104 170.5,437.5C 174.207,438.511 177.873,439.677 181.5,441C 184.696,441.805 187.696,441.638 190.5,440.5C 194.516,439.488 198.516,438.488 202.5,437.5C 203.167,437.5 203.5,437.167 203.5,436.5C 229.475,436.21 255.475,436.544 281.5,437.5C 284.215,439.123 287.215,439.79 290.5,439.5C 291.473,439.987 292.473,440.487 293.5,441C 302.167,441.667 310.833,441.667 319.5,441C 320.572,438.324 319.905,435.991 317.5,434C 318.448,433.517 319.448,433.351 320.5,433.5 Z"/></g>
</svg>
